<svg width="508" height="60" fill="none" xmlns="http://www.w3.org/2000/svg">
  <path d="M56.065 25.905a1.183 1.183 0 01-.758 1.515l-17.59 5.616a9.718 9.718 0 00-.356-5.088 9.717 9.717 0 00-3.115-4.418l17.446-6.536a1.183 1.183 0 011.533.721l2.84 8.19zM41.552 56.32a1.183 1.183 0 01-1.67-.28l-10.54-15.16a9.717 9.717 0 004.758-1.836 9.717 9.717 0 003.308-4.276L48.783 49.52a1.183 1.183 0 01-.237 1.678l-6.994 5.121zM2.782 18.016a1.183 1.183 0 011.523-.742l17.383 6.23a9.717 9.717 0 00-2.81 4.256 9.716 9.716 0 00-.211 5.402L.84 27.75a1.183 1.183 0 01-.78-1.504l2.722-8.23zm11.954 38.147a1.183 1.183 0 001.671-.279l10.54-15.162a9.717 9.717 0 01-4.758-1.836 9.717 9.717 0 01-3.308-4.276L7.505 49.365a1.183 1.183 0 00.238 1.677l6.993 5.121z" fill="#2684FC"/>
  <path fill-rule="evenodd" clip-rule="evenodd" d="M27.86 39.392a8.283 8.283 0 10.528-16.559 8.283 8.283 0 00-.529 16.559zm.198-6.21a2.07 2.07 0 10.132-4.14 2.07 2.07 0 00-.132 4.14z" fill="#0066DA"/>
  <path d="M28.253 1.261L23.648 5.73a.533.533 0 00-.162.374l-.291 19.438c-.007.475.632 1.045 1.107 1.046 2.372.006 7.648.554 8.829.497.197-.01.19-.227.192-.424l.078-5.175a.533.533 0 00-.166-.394l-2.886-2.746a.533.533 0 01.012-.783l2.708-2.426a.533.533 0 00.01-.785l-2.656-2.507a.533.533 0 01.012-.786l2.989-2.656a.536.536 0 00.179-.39l.028-1.72a.533.533 0 00-.149-.378l-4.474-4.641a.533.533 0 00-.755-.013z" fill="#0066DA"/>
  <path d="M75.684 49.633c-.364 0-.673-.11-.927-.328a1.376 1.376 0 01-.328-.927V12.747c0-.4.11-.71.328-.928.254-.254.563-.382.927-.382h13.86c4.11 0 7.348 1 9.712 3.001 2.365 2.001 3.547 4.893 3.547 8.676 0 3.783-1.182 6.675-3.547 8.676-2.328 1.964-5.565 2.947-9.712 2.947h-9.658v13.64c0 .365-.128.674-.382.928a1.376 1.376 0 01-.928.328h-2.892zm13.587-19.48c2.655 0 4.656-.6 6.002-1.8 1.382-1.201 2.074-2.947 2.074-5.239s-.673-4.038-2.02-5.238c-1.345-1.237-3.364-1.855-6.056-1.855h-9.44v14.132h9.44zm26.837 20.025c-1.783 0-3.438-.363-4.965-1.09-1.528-.728-2.747-1.71-3.656-2.947a7.271 7.271 0 01-1.31-4.202c0-2.4.982-4.365 2.947-5.893 2-1.564 4.692-2.583 8.075-3.056l8.13-1.145v-1.583c0-3.71-2.128-5.565-6.384-5.565-1.6 0-2.91.345-3.928 1.036-1.019.655-1.783 1.437-2.292 2.347-.109.327-.255.563-.437.709-.145.145-.363.218-.654.218h-2.347c-.327 0-.618-.109-.873-.327a1.304 1.304 0 01-.327-.873c.036-.873.436-1.855 1.2-2.947.801-1.127 2.019-2.091 3.656-2.892 1.637-.836 3.656-1.255 6.057-1.255 4.074 0 7.002.964 8.785 2.892 1.782 1.892 2.674 4.256 2.674 7.094v17.679c0 .364-.128.673-.382.927-.219.219-.51.328-.873.328h-2.51a1.38 1.38 0 01-.928-.328 1.378 1.378 0 01-.327-.927v-2.346c-.801 1.164-1.965 2.146-3.493 2.946-1.527.8-3.474 1.2-5.838 1.2zm1.146-4.092c2.364 0 4.292-.764 5.784-2.292 1.528-1.564 2.291-3.801 2.291-6.711v-1.528l-6.329.928c-2.583.363-4.529.982-5.839 1.855-1.309.837-1.964 1.91-1.964 3.22 0 1.454.6 2.582 1.801 3.382 1.2.764 2.619 1.146 4.256 1.146zm30.87 4.092c-2.546 0-4.692-.4-6.438-1.2-1.71-.837-3.001-1.782-3.874-2.837-.837-1.055-1.255-1.928-1.255-2.62 0-.363.127-.636.382-.818.291-.218.582-.327.873-.327h2.455c.364 0 .691.181.982.545.873 1.019 1.819 1.82 2.838 2.401 1.018.582 2.382.873 4.092.873 1.892 0 3.419-.364 4.583-1.091 1.201-.764 1.801-1.8 1.801-3.11 0-.873-.255-1.583-.764-2.128-.473-.582-1.309-1.074-2.51-1.474-1.164-.436-2.91-.909-5.238-1.418-3.165-.691-5.42-1.692-6.766-3.001-1.31-1.31-1.964-3.002-1.964-5.075 0-1.382.4-2.692 1.2-3.929.837-1.273 2.037-2.291 3.601-3.055 1.601-.8 3.511-1.2 5.73-1.2 2.328 0 4.31.381 5.947 1.145 1.637.764 2.856 1.673 3.656 2.728.837 1.019 1.255 1.874 1.255 2.565 0 .327-.127.6-.382.819a1.11 1.11 0 01-.818.327h-2.292c-.437 0-.8-.182-1.091-.546-.582-.691-1.092-1.218-1.528-1.582-.4-.4-1.001-.746-1.801-1.037-.764-.29-1.746-.436-2.946-.436-1.746 0-3.092.381-4.038 1.145-.946.728-1.419 1.692-1.419 2.892 0 .764.2 1.42.6 1.965.4.509 1.164.982 2.292 1.418 1.164.437 2.837.892 5.02 1.364 3.456.728 5.893 1.783 7.312 3.165 1.455 1.346 2.182 3.074 2.182 5.184a7.148 7.148 0 01-1.364 4.256c-.909 1.273-2.255 2.274-4.038 3.001-1.746.728-3.837 1.091-6.275 1.091zm27.816 0c-2.547 0-4.693-.4-6.439-1.2-1.71-.837-3.001-1.782-3.874-2.837-.837-1.055-1.255-1.928-1.255-2.62 0-.363.127-.636.382-.818.291-.218.582-.327.873-.327h2.455c.364 0 .692.181.983.545.873 1.019 1.818 1.82 2.837 2.401 1.019.582 2.383.873 4.092.873 1.892 0 3.42-.364 4.584-1.091 1.2-.764 1.8-1.8 1.8-3.11 0-.873-.254-1.583-.763-2.128-.473-.582-1.31-1.074-2.51-1.474-1.164-.436-2.911-.909-5.239-1.418-3.164-.691-5.42-1.692-6.766-3.001-1.309-1.31-1.964-3.002-1.964-5.075 0-1.382.4-2.692 1.2-3.929.837-1.273 2.037-2.291 3.602-3.055 1.6-.8 3.51-1.2 5.729-1.2 2.328 0 4.311.381 5.948 1.145 1.637.764 2.855 1.673 3.655 2.728.837 1.019 1.255 1.874 1.255 2.565 0 .327-.127.6-.382.819a1.11 1.11 0 01-.818.327h-2.292c-.436 0-.8-.182-1.091-.546-.582-.691-1.091-1.218-1.528-1.582-.4-.4-1-.746-1.801-1.037-.763-.29-1.746-.436-2.946-.436-1.746 0-3.092.381-4.038 1.145-.946.728-1.419 1.692-1.419 2.892 0 .764.201 1.42.601 1.965.4.509 1.164.982 2.291 1.418 1.164.437 2.838.892 5.02 1.364 3.456.728 5.893 1.783 7.312 3.165 1.455 1.346 2.183 3.074 2.183 5.184a7.155 7.155 0 01-1.364 4.256c-.91 1.273-2.256 2.274-4.038 3.001-1.746.728-3.838 1.091-6.275 1.091zm24.777-.545c-.472 0-.836-.11-1.091-.328-.254-.218-.473-.563-.655-1.036l-7.748-25.318-.109-.546c0-.328.109-.6.327-.819.255-.218.528-.327.819-.327h2.401c.363 0 .654.11.873.327.254.182.418.382.491.6l6.057 20.572 6.493-20.353c.073-.291.236-.546.491-.764.255-.255.6-.382 1.037-.382h1.855c.436 0 .782.127 1.037.382.254.218.418.473.491.764l6.493 20.353 6.057-20.571c.036-.182.163-.382.382-.6a1.37 1.37 0 01.927-.328h2.456c.291 0 .545.11.764.327.218.219.327.491.327.819l-.109.546-7.694 25.318c-.182.473-.4.818-.655 1.036-.254.219-.636.328-1.146.328h-2.128c-.982 0-1.582-.455-1.8-1.364l-6.33-19.535-6.329 19.535c-.291.91-.91 1.364-1.856 1.364h-2.128zm47.095.545c-4.002 0-7.112-1.127-9.331-3.383-2.182-2.255-3.347-5.256-3.492-9.003l-.055-2.346.055-2.346c.145-3.71 1.328-6.694 3.547-8.95 2.219-2.29 5.311-3.437 9.276-3.437s7.057 1.146 9.276 3.438c2.219 2.255 3.401 5.238 3.547 8.949.036.4.054 1.182.054 2.346 0 1.164-.018 1.946-.054 2.346-.146 3.747-1.328 6.748-3.547 9.003-2.183 2.256-5.275 3.383-9.276 3.383zm0-4.201c2.291 0 4.092-.728 5.402-2.183 1.346-1.455 2.073-3.546 2.182-6.275.037-.363.055-1.055.055-2.073 0-1.019-.018-1.71-.055-2.074-.109-2.728-.836-4.82-2.182-6.275-1.31-1.455-3.111-2.182-5.402-2.182-2.292 0-4.111.727-5.457 2.182s-2.055 3.547-2.128 6.275l-.054 2.074.054 2.073c.073 2.729.782 4.82 2.128 6.275s3.165 2.183 5.457 2.183zm20.965 3.656a1.38 1.38 0 01-.928-.328 1.378 1.378 0 01-.327-.927v-25.81c0-.363.109-.672.327-.927.255-.255.564-.382.928-.382h2.51c.363 0 .673.127.927.382.255.255.382.564.382.928v2.4c1.492-2.473 4.038-3.71 7.639-3.71h2.128c.364 0 .655.127.873.382.255.218.382.51.382.873v2.237c0 .364-.127.655-.382.873-.218.218-.509.328-.873.328h-3.274c-1.964 0-3.51.582-4.638 1.746-1.127 1.127-1.691 2.673-1.691 4.638v16.042c0 .364-.127.673-.382.927a1.378 1.378 0 01-.928.328h-2.673zm29.254.545c-3.783 0-6.639-1.236-8.567-3.71-1.927-2.474-2.946-5.602-3.055-9.385l-.055-1.637.055-1.637c.109-3.747 1.128-6.857 3.055-9.33 1.928-2.51 4.784-3.766 8.567-3.766 3.747 0 6.694 1.328 8.84 3.984v-12.55c0-.364.109-.655.327-.873.255-.255.564-.382.928-.382h2.619c.364 0 .655.127.873.382.255.218.382.509.382.873v36.23c0 .365-.127.674-.382.928-.218.219-.509.328-.873.328h-2.456c-.363 0-.673-.11-.927-.328a1.378 1.378 0 01-.328-.927v-2.292c-2.109 2.728-5.11 4.092-9.003 4.092zm1.146-4.42c2.51 0 4.383-.818 5.62-2.455 1.273-1.673 1.965-3.656 2.074-5.947.036-.4.054-1.092.054-2.074 0-1.018-.018-1.728-.054-2.128-.073-2.146-.764-4.02-2.074-5.62-1.309-1.6-3.183-2.4-5.62-2.4-2.583 0-4.474.8-5.675 2.4-1.164 1.6-1.8 3.71-1.909 6.33l-.055 1.582c0 6.875 2.546 10.313 7.639 10.313z" fill="#2684FC"/>
  <path d="M337.834 49.632c-.364 0-.673-.11-.928-.327a1.378 1.378 0 01-.327-.928v-35.63c0-.401.109-.71.327-.928.255-.255.564-.383.928-.383h2.728c.4 0 .709.128.927.383.255.218.382.527.382.927v13.532L356.44 12.31c.582-.583 1.292-.873 2.128-.873h2.947c.291 0 .545.109.764.327.218.218.327.473.327.764 0 .29-.073.527-.218.71l-16.861 16.478 17.952 18.06c.182.22.273.474.273.765 0 .29-.109.545-.327.764a1.049 1.049 0 01-.764.327h-3.056c-.8 0-1.51-.31-2.128-.927l-15.606-15.333v15.005c0 .364-.127.673-.382.928a1.374 1.374 0 01-.927.327h-2.728zm40.504.546c-3.747 0-6.748-1.146-9.003-3.438-2.219-2.328-3.438-5.493-3.656-9.494l-.055-1.855.055-1.801c.254-3.929 1.491-7.057 3.71-9.385 2.256-2.328 5.22-3.492 8.894-3.492 4.038 0 7.167 1.291 9.386 3.874 2.219 2.546 3.328 6.002 3.328 10.367v.928c0 .363-.127.673-.382.927-.218.219-.509.328-.873.328h-18.879v.49c.109 2.365.818 4.384 2.128 6.057 1.345 1.637 3.11 2.456 5.292 2.456 1.674 0 3.038-.328 4.093-.982 1.091-.691 1.891-1.4 2.401-2.128.327-.437.563-.691.709-.764.182-.11.491-.164.928-.164h2.673c.328 0 .6.091.819.273.218.182.327.436.327.764 0 .8-.509 1.764-1.528 2.892-.982 1.127-2.382 2.11-4.201 2.946-1.783.8-3.838 1.2-6.166 1.2zm7.475-16.806v-.164c0-2.51-.691-4.547-2.073-6.111-1.346-1.6-3.165-2.401-5.457-2.401-2.291 0-4.11.8-5.456 2.4-1.31 1.565-1.964 3.602-1.964 6.112v.164h14.95zm23.058 16.806c-3.747 0-6.748-1.146-9.003-3.438-2.219-2.328-3.438-5.493-3.656-9.494l-.055-1.855.055-1.801c.254-3.929 1.491-7.057 3.71-9.385 2.256-2.328 5.22-3.492 8.894-3.492 4.038 0 7.167 1.291 9.386 3.874 2.219 2.546 3.328 6.002 3.328 10.367v.928c0 .363-.127.673-.382.927-.218.219-.509.328-.873.328h-18.88v.49c.11 2.365.819 4.384 2.129 6.057 1.345 1.637 3.11 2.456 5.292 2.456 1.674 0 3.038-.328 4.093-.982 1.091-.691 1.891-1.4 2.401-2.128.327-.437.563-.691.709-.764.182-.11.491-.164.928-.164h2.673c.328 0 .6.091.819.273.218.182.327.436.327.764 0 .8-.509 1.764-1.528 2.892-.982 1.127-2.382 2.11-4.201 2.946-1.783.8-3.838 1.2-6.166 1.2zm7.475-16.806v-.164c0-2.51-.691-4.547-2.073-6.111-1.346-1.6-3.165-2.401-5.457-2.401-2.291 0-4.11.8-5.456 2.4-1.31 1.565-1.965 3.602-1.965 6.112v.164h14.951zM429.364 60c-.364 0-.673-.128-.928-.383-.218-.218-.327-.509-.327-.873v-36.23c0-.364.109-.656.327-.874.255-.254.564-.382.928-.382h2.51c.364 0 .655.128.873.382.255.218.382.51.382.873v2.401c2.037-2.8 5.02-4.201 8.949-4.201 3.819 0 6.675 1.2 8.566 3.6 1.928 2.402 2.965 5.494 3.11 9.277.037.4.055 1.018.055 1.855s-.018 1.455-.055 1.855c-.145 3.747-1.182 6.84-3.11 9.276-1.928 2.401-4.783 3.602-8.566 3.602-3.784 0-6.73-1.364-8.84-4.093v12.66c0 .363-.109.654-.327.873-.219.254-.51.381-.873.381h-2.674zm11.568-14.242c2.582 0 4.456-.8 5.62-2.4 1.2-1.601 1.855-3.711 1.964-6.33.037-.364.055-.892.055-1.583 0-6.875-2.547-10.313-7.639-10.313-2.51 0-4.402.837-5.675 2.51-1.237 1.637-1.91 3.602-2.019 5.893l-.055 2.074.055 2.128c.073 2.146.764 4.02 2.074 5.62 1.309 1.6 3.182 2.4 5.62 2.4zm30.976 4.42c-3.746 0-6.747-1.146-9.003-3.438-2.219-2.328-3.437-5.493-3.656-9.494l-.054-1.855.054-1.801c.255-3.929 1.492-7.057 3.711-9.385 2.255-2.328 5.22-3.492 8.894-3.492 4.038 0 7.166 1.291 9.385 3.874 2.219 2.546 3.329 6.002 3.329 10.367v.928c0 .363-.128.673-.382.927-.219.219-.51.328-.873.328h-18.88v.49c.109 2.365.819 4.384 2.128 6.057 1.346 1.637 3.11 2.456 5.293 2.456 1.673 0 3.037-.328 4.092-.982 1.092-.691 1.892-1.4 2.401-2.128.328-.437.564-.691.709-.764.182-.11.492-.164.928-.164h2.674c.327 0 .6.091.818.273.219.182.328.436.328.764 0 .8-.51 1.764-1.528 2.892-.982 1.127-2.383 2.11-4.202 2.946-1.782.8-3.837 1.2-6.166 1.2zm7.476-16.806v-.164c0-2.51-.691-4.547-2.074-6.111-1.346-1.6-3.164-2.401-5.456-2.401-2.292 0-4.111.8-5.457 2.4-1.309 1.565-1.964 3.602-1.964 6.112v.164h14.951zm12.963 16.26c-.364 0-.673-.11-.928-.327a1.378 1.378 0 01-.327-.928v-25.81c0-.363.109-.672.327-.927.255-.254.564-.382.928-.382h2.51c.364 0 .673.128.928.382.254.255.381.564.381.928v2.4c1.492-2.473 4.038-3.71 7.64-3.71h2.128c.363 0 .654.128.873.382.254.218.382.51.382.873v2.237c0 .364-.128.655-.382.873-.219.219-.51.328-.873.328h-3.274c-1.965 0-3.511.582-4.638 1.746-1.128 1.128-1.692 2.674-1.692 4.638v16.042c0 .364-.127.673-.382.928a1.376 1.376 0 01-.927.327h-2.674z" fill="#0066DA"/>
</svg>
