<svg width="1200" height="707" fill="none" xmlns="http://www.w3.org/2000/svg">
  <g clip-path="url(#background__clip0)">
    <path fill="url(#background__paint0_linear)" d="M0 0h1200v706.09H0z"/>
    <g opacity=".12" fill="#FAFAFA">
      <path d="M1113.7 62.916a2.039 2.039 0 01-1.33 2.576l-30.16 9.233c.59-2.803.46-5.796-.5-8.712a16.615 16.615 0 00-5.23-7.627l29.94-10.809a2.017 2.017 0 012.6 1.266l4.68 14.073zm-25.44 51.732a2.02 2.02 0 01-2.85-.514l-17.67-26.168a16.604 16.604 0 008.16-3.039 16.57 16.57 0 005.74-7.246l19.11 25.489c.69.909.49 2.203-.44 2.864l-12.05 8.614zm-65.4-66.368a2.022 2.022 0 012.62-1.237l29.55 11.03a16.639 16.639 0 00-4.89 7.223 16.702 16.702 0 00-.47 9.238l-30.33-9.64a2.02 2.02 0 01-1.3-2.59l4.82-14.023zm19.6 65.527c.91.684 2.2.484 2.86-.442l18.33-25.718a16.591 16.591 0 01-8.09-3.242 16.593 16.593 0 01-5.56-7.387l-19.74 25.002c-.71.892-.54 2.191.37 2.875l11.83 8.912z"/>
      <path fill-rule="evenodd" clip-rule="evenodd" d="M1065.17 85.484c7.8.347 14.4-5.691 14.74-13.487.35-7.796-5.69-14.397-13.48-14.744-7.8-.346-14.4 5.692-14.75 13.488-.34 7.796 5.7 14.397 13.49 14.743zm.47-10.586a3.537 3.537 0 003.69-3.372 3.541 3.541 0 00-3.37-3.686 3.537 3.537 0 00-3.69 3.372 3.528 3.528 0 003.37 3.686z"/>
      <path d="M1066.66 20.456l-7.95 7.523a.909.909 0 00-.29.635l-.91 33.149c-.02.81 1.06 1.796 1.87 1.808 4.04.06 13.03 1.107 15.04 1.035.34-.013.33-.382.34-.72l.24-8.824a.9.9 0 00-.27-.676l-4.86-4.745a.908.908 0 01.03-1.335l4.67-4.08c.41-.35.42-.968.04-1.338l-4.48-4.334a.906.906 0 01.04-1.34l5.15-4.466c.2-.167.31-.406.32-.66l.08-2.935a.91.91 0 00-.24-.649l-7.54-8.01a.9.9 0 00-1.28-.038z"/>
    </g>
    <g opacity=".2" fill="#FAFAFA">
      <path d="M117.243 634.314a1.778 1.778 0 01-1.137 2.275l-26.374 8.436a14.623 14.623 0 00-.533-7.642 14.593 14.593 0 00-4.67-6.637l26.158-9.816a1.774 1.774 0 012.299 1.082l4.257 12.302zm-21.759 45.685a1.772 1.772 0 01-2.505-.419l-15.802-22.775a14.55 14.55 0 007.134-2.757 14.586 14.586 0 004.96-6.423l17.055 22.162a1.778 1.778 0 01-.357 2.519l-10.485 7.693zm-58.129-57.534a1.773 1.773 0 012.283-1.115l26.062 9.357a14.593 14.593 0 00-4.211 6.393 14.62 14.62 0 00-.317 8.114l-26.73-8.129a1.778 1.778 0 01-1.168-2.259l4.08-12.361zm17.923 57.299c.805.59 1.936.401 2.505-.42l15.802-22.774a14.56 14.56 0 01-7.133-2.757 14.597 14.597 0 01-4.96-6.423l-17.055 22.162a1.78 1.78 0 00.356 2.519l10.485 7.693z"/>
      <path fill-rule="evenodd" clip-rule="evenodd" d="M74.899 654.654c6.846.219 12.574-5.154 12.793-12.001.218-6.846-5.154-12.574-12-12.792-6.847-.219-12.575 5.154-12.794 12-.218 6.846 5.154 12.574 12 12.793zm.297-9.298a3.1 3.1 0 10.2-6.197 3.1 3.1 0 00-.2 6.197z"/>
      <path d="M75.489 597.56l-6.896 6.691a.797.797 0 00-.242.56l-.436 29.106c-.01.71.947 1.564 1.657 1.566 3.552.008 11.452.829 13.22.743.295-.014.284-.339.288-.634l.117-7.749a.797.797 0 00-.248-.59l-4.322-4.112a.798.798 0 01.018-1.172l4.055-3.633a.797.797 0 00.015-1.174l-3.978-3.755a.798.798 0 01.018-1.177l4.476-3.976a.799.799 0 00.268-.583l.042-2.577a.794.794 0 00-.223-.566l-6.7-6.949a.798.798 0 00-1.13-.019z"/>
    </g>
    <path opacity=".2" d="M77.872 354.919l-13.87-3.949 2.605-8.031 13.739 5.546L79.46 333h8.658l-.882 15.796 13.385-5.458 2.606 8.12-14.135 3.949 9.277 11.802-7.023 5.014-8.041-12.956-7.95 12.512-7.025-4.792 9.541-12.068zm181.567 0l-13.872-3.949 2.606-8.031 13.739 5.546-.884-15.485h8.658l-.883 15.796 13.385-5.458 2.607 8.12-14.136 3.949 9.277 11.802-7.023 5.014-8.041-12.956-7.95 12.512-7.024-4.792 9.541-12.068zm-60.523 0l-13.871-3.949 2.606-8.031 13.739 5.546-.885-15.485h8.658l-.882 15.796 13.384-5.458 2.607 8.12-14.135 3.949 9.277 11.802-7.023 5.014-8.041-12.956-7.951 12.512-7.024-4.792 9.541-12.068zm-60.521 0l-13.871-3.949 2.605-8.031 13.739 5.546-.884-15.485h8.658l-.883 15.796 13.385-5.458 2.607 8.12-14.136 3.949 9.278 11.802-7.024 5.014-8.041-12.956-7.95 12.512-7.024-4.792 9.541-12.068zm790.677 0l-13.871-3.949 2.606-8.031 13.739 5.546-.885-15.485h8.659l-.883 15.796 13.385-5.458 2.607 8.12-14.136 3.949 9.277 11.802-7.023 5.014-8.041-12.956-7.951 12.512-7.024-4.792 9.541-12.068zm181.568 0l-13.87-3.949 2.6-8.031 13.74 5.546-.88-15.485h8.66l-.89 15.796 13.39-5.458 2.6 8.12-14.13 3.949 9.28 11.802-7.03 5.014-8.04-12.956-7.95 12.512-7.02-4.792 9.54-12.068zm-60.52 0l-13.87-3.949 2.6-8.031 13.74 5.546-.88-15.485h8.65l-.88 15.796 13.39-5.458 2.6 8.12-14.13 3.949 9.27 11.802-7.02 5.014-8.04-12.956-7.95 12.512-7.02-4.792 9.54-12.068zm-60.525 0l-13.871-3.949 2.606-8.031 13.738 5.546-.884-15.485h8.658l-.882 15.796 13.38-5.458 2.61 8.12-14.13 3.949 9.27 11.802-7.02 5.014-8.041-12.956-7.951 12.512-7.024-4.792 9.541-12.068z" fill="#EEE"/>
    <path opacity=".25" fill-rule="evenodd" clip-rule="evenodd" d="M547.777 0c17.86 69.69 55.871 113.421 114.033 131.192 126.754 38.728 418.83 12.063 538.19 12.063V0H547.777zM174.229 754.414c2.437-71.765-14.989-120.936-52.277-147.512-81.263-57.92-293.573-76.612-377.981-95.041L-287 653.713l461.229 100.701z" fill="#155392"/>
  </g>
  <defs>
    <linearGradient id="background__paint0_linear" x1="600" y1="0" x2="600" y2="706.09" gradientUnits="userSpaceOnUse">
      <stop stop-color="#145EA8"/>
      <stop offset="1" stop-color="#0066DA" stop-opacity=".82"/>
    </linearGradient>
    <clipPath id="background__clip0">
      <path fill="#fff" d="M0 0h1200v706.09H0z"/>
    </clipPath>
  </defs>
</svg>
