<svg width="400" height="100" fill="none" xmlns="http://www.w3.org/2000/svg">
  <path d="M169.229 72.851l3.159 5.457c.657 1.148 1.6 2.051 2.708 2.707l11.282-19.528h-22.564a7.44 7.44 0 00.984 3.693l4.431 7.671z" fill="#0066DA"/>
  <path d="M199.629 38.513l-11.282-19.529c-1.107.657-2.051 1.56-2.707 2.708l-20.842 36.103a7.437 7.437 0 00-.984 3.692h22.564l13.251-22.974z" fill="#00AC47"/>
  <path d="M199.629 38.513l11.282-19.528c-1.107-.657-2.379-.985-3.692-.985H192.04c-1.313 0-2.585.37-3.693.985l11.282 19.528z" fill="#00832D"/>
  <path d="M212.881 61.487h-26.503l-11.282 19.529c1.108.656 2.379.984 3.692.984h41.682c1.313 0 2.585-.37 3.693-.984l-11.282-19.529z" fill="#2684FC"/>
  <path d="M224.163 81.016c1.107-.657 2.051-1.56 2.707-2.708l1.313-2.257 6.277-10.871a7.438 7.438 0 00.985-3.693h-22.523l11.241 19.529z" fill="#EA4335"/>
  <path d="M223.35 39.743l-10.42-18.05c-.657-1.15-1.6-2.052-2.708-2.709L198.94 38.513l13.251 22.974h22.524a7.439 7.439 0 00-.985-3.692l-10.38-18.052z" fill="#FFBA00"/>
  <circle cx="151.061" cy="48.674" r="12.752" fill="#C4C4C4"/>
  <circle cx="115.907" cy="48.674" r="12.752" fill="#C4C4C4"/>
  <circle cx="80.752" cy="48.674" r="12.752" fill="#C4C4C4"/>
  <circle cx="248.254" cy="48.674" r="12.752" fill="#C4C4C4"/>
  <circle cx="283.408" cy="48.674" r="12.752" fill="#C4C4C4"/>
  <circle cx="318.563" cy="48.674" r="12.752" fill="#C4C4C4"/>
</svg>
