<svg width="400" height="100" fill="none" xmlns="http://www.w3.org/2000/svg">
  <path d="M70.473 54.812v16.605H65V29h15.307c4.542 0 8.096 1.185 10.66 3.554 2.585 2.37 3.877 5.506 3.877 9.41 0 4.117-1.263 7.293-3.79 9.526-2.509 2.215-6.11 3.322-10.804 3.322h-9.777zm0-4.574h9.834c2.927 0 5.169-.7 6.727-2.098 1.558-1.418 2.338-3.457 2.338-6.118 0-2.524-.78-4.544-2.338-6.06-1.558-1.514-3.696-2.3-6.413-2.359H70.473v16.635zm49.228 21.179c-.304-.621-.551-1.728-.741-3.32-2.452 2.602-5.378 3.903-8.78 3.903-3.04 0-5.539-.874-7.497-2.622-1.938-1.767-2.907-4-2.907-6.7 0-3.283 1.216-5.827 3.649-7.633 2.451-1.826 5.89-2.739 10.318-2.739h5.131V49.83c0-1.884-.551-3.38-1.653-4.486-1.102-1.127-2.727-1.69-4.874-1.69-1.882 0-3.459.485-4.732 1.456-1.274.971-1.91 2.147-1.91 3.526h-5.302c0-1.574.542-3.089 1.625-4.545 1.102-1.476 2.584-2.642 4.447-3.496 1.881-.855 3.943-1.282 6.185-1.282 3.554 0 6.338.913 8.352 2.738 2.014 1.807 3.059 4.302 3.136 7.488v14.508c0 2.894.361 5.195 1.083 6.904v.466h-5.53zm-8.751-4.107c1.653 0 3.221-.437 4.703-1.311 1.482-.874 2.556-2.01 3.221-3.409v-6.467h-4.133c-6.461 0-9.692 1.932-9.692 5.797 0 1.69.551 3.01 1.654 3.962 1.102.952 2.517 1.428 4.247 1.428zm39.422-4.254c0-1.456-.542-2.583-1.625-3.38-1.064-.815-2.936-1.514-5.615-2.097-2.661-.582-4.78-1.282-6.357-2.097-1.558-.816-2.717-1.787-3.477-2.914-.742-1.126-1.112-2.466-1.112-4.02 0-2.583 1.064-4.768 3.192-6.555 2.148-1.787 4.884-2.68 8.21-2.68 3.496 0 6.328.922 8.494 2.768 2.186 1.845 3.278 4.204 3.278 7.079h-5.302c0-1.476-.617-2.748-1.852-3.816-1.217-1.069-2.756-1.603-4.618-1.603-1.92 0-3.421.428-4.504 1.282-1.083.855-1.625 1.971-1.625 3.35 0 1.302.504 2.282 1.511 2.943 1.007.66 2.822 1.291 5.444 1.893 2.642.602 4.78 1.321 6.414 2.156 1.634.835 2.841 1.845 3.62 3.03.798 1.165 1.197 2.593 1.197 4.282 0 2.817-1.102 5.08-3.306 6.788-2.205 1.69-5.065 2.535-8.58 2.535-2.471 0-4.656-.447-6.556-1.34-1.901-.894-3.392-2.136-4.476-3.73-1.064-1.611-1.596-3.35-1.596-5.214h5.274c.095 1.806.798 3.244 2.109 4.312 1.33 1.049 3.078 1.573 5.245 1.573 1.995 0 3.591-.408 4.789-1.224 1.216-.835 1.824-1.942 1.824-3.32zm30.101 0c0-1.456-.542-2.583-1.625-3.38-1.064-.815-2.936-1.514-5.615-2.097-2.661-.582-4.779-1.282-6.357-2.097-1.558-.816-2.717-1.787-3.477-2.914-.741-1.126-1.112-2.466-1.112-4.02 0-2.583 1.064-4.768 3.192-6.555 2.148-1.787 4.884-2.68 8.21-2.68 3.496 0 6.328.922 8.494 2.768 2.186 1.845 3.278 4.204 3.278 7.079h-5.302c0-1.476-.617-2.748-1.852-3.816-1.217-1.069-2.756-1.603-4.618-1.603-1.919 0-3.421.428-4.504 1.282-1.083.855-1.625 1.971-1.625 3.35 0 1.302.504 2.282 1.511 2.943 1.007.66 2.822 1.291 5.445 1.893 2.641.602 4.779 1.321 6.413 2.156 1.634.835 2.841 1.845 3.62 3.03.798 1.165 1.197 2.593 1.197 4.282 0 2.817-1.102 5.08-3.306 6.788-2.205 1.69-5.064 2.535-8.58 2.535-2.471 0-4.656-.447-6.556-1.34-1.901-.894-3.392-2.136-4.475-3.73-1.065-1.611-1.597-3.35-1.597-5.214h5.274c.095 1.806.798 3.244 2.109 4.312 1.33 1.049 3.079 1.573 5.245 1.573 1.995 0 3.592-.408 4.789-1.224 1.216-.835 1.824-1.942 1.824-3.32zm31.184 5.244c-2.052 2.467-5.064 3.7-9.036 3.7-3.287 0-5.796-.971-7.525-2.913-1.71-1.962-2.575-4.856-2.594-8.682v-20.51h5.273V60.26c0 4.778 1.901 7.167 5.701 7.167 4.029 0 6.709-1.534 8.039-4.603V39.896h5.273v31.521h-5.017l-.114-3.117zm34.89-11.129h5.758v4.4h-5.758v9.846h-5.302v-9.846h-18.898v-3.176L240.932 29h5.615v28.171zm-18.214 0h12.912v-20.8l-.627 1.165-12.285 19.635zm36.429-24.908v7.633h5.758v4.166h-5.758V63.61c0 1.262.256 2.214.769 2.855.514.621 1.388.932 2.623.932.608 0 1.444-.117 2.508-.35v4.37c-1.387.389-2.736.583-4.047.583-2.357 0-4.134-.728-5.331-2.185s-1.796-3.525-1.796-6.205V44.062h-5.615v-4.166h5.615v-7.633h5.274zm36.229 19.548h-17.986v15.033h20.894v4.573h-26.367V29h26.082v4.603h-20.609v13.634h17.986v4.574zM334 47.703h-23.773v-4.69H334v4.69zm0 12.09h-23.773v-4.66H334v4.66z" fill="#CBCBCB"/>
  <path d="M198.293 16.356a2.22 2.22 0 012.414 0 66.566 66.566 0 0027.424 10.289c.519.073.993.325 1.337.712.343.386.532.88.532 1.392v19.124c0 16.537-10.052 28.602-29.716 35.985-.504.19-1.064.19-1.568 0C179.056 76.475 169 64.406 169 47.873V28.75c0-.512.19-1.007.534-1.393.344-.387.82-.64 1.34-.711a66.563 66.563 0 0027.419-10.29z" fill="#00AC47"/>
  <path d="M181.443 53.662h-2.763l-.537 2.19H176l3.135-10.705h1.854l3.156 10.706h-2.164l-.538-2.191zm-2.322-1.802h1.875l-.938-3.816-.937 3.816zm11.149-.64h-3.156v2.839h3.735v1.794h-5.76V45.147h5.746v1.802h-3.721v2.529h3.156v1.743zm5.988 1.824c0-.436-.106-.765-.317-.985-.207-.226-.586-.459-1.137-.699-1.006-.407-1.729-.882-2.17-1.426-.441-.55-.662-1.196-.662-1.941 0-.902.299-1.625.896-2.17.602-.548 1.364-.823 2.288-.823.615 0 1.164.14 1.646.42.483.274.852.663 1.11 1.168.262.505.393 1.079.393 1.72h-2.019c0-.5-.101-.88-.304-1.139-.197-.265-.484-.397-.861-.397-.354 0-.629.113-.827.338-.197.22-.296.52-.296.897 0 .294.11.562.331.802.22.235.611.48 1.171.735.979.378 1.688.84 2.129 1.39.446.549.669 1.247.669 2.095 0 .932-.278 1.66-.834 2.184-.556.525-1.312.787-2.267.787a3.702 3.702 0 01-1.771-.426 3.1 3.1 0 01-1.254-1.221c-.299-.53-.448-1.154-.448-1.875h2.033c0 .618.112 1.066.337 1.346.226.279.593.419 1.103.419.707 0 1.061-.4 1.061-1.199zm12.396 2.809h-5.912v-1.47l2.715-3.684c.344-.51.597-.956.758-1.339a2.83 2.83 0 00.248-1.11c0-.475-.078-.848-.234-1.118-.152-.27-.373-.404-.662-.404-.317 0-.57.157-.758.47-.184.314-.276.755-.276 1.324h-1.956c0-.657.126-1.257.379-1.801.257-.544.615-.966 1.074-1.265a2.806 2.806 0 011.572-.456c.895 0 1.589.265 2.08.794.497.525.745 1.272.745 2.243 0 .603-.138 1.215-.414 1.838-.271.618-.765 1.38-1.481 2.287l-1.289 1.963h3.411v1.728zm1.426-5.265l.496-5.44h4.858v1.778h-3.259l-.179 2.295c.377-.27.765-.405 1.164-.405.827 0 1.463.314 1.909.941.45.628.675 1.515.675 2.662 0 1.074-.266 1.939-.799 2.596S213.7 56 212.809 56a2.846 2.846 0 01-2.536-1.515 3.396 3.396 0 01-.392-1.617h1.929c.032.446.135.791.31 1.036.174.245.4.368.675.368.322 0 .57-.164.744-.493.175-.333.262-.828.262-1.485 0-.617-.105-1.083-.317-1.397a.988.988 0 00-.875-.47c-.367 0-.652.134-.854.404l-.124.184-1.551-.427zm11.59-5.551V46.8h-.11c-.731.005-1.312.24-1.743.706-.428.461-.687 1.108-.779 1.942.418-.51.942-.765 1.571-.765.726 0 1.305.33 1.736.992.437.662.655 1.545.655 2.648 0 .7-.124 1.333-.372 1.897-.248.563-.597 1.002-1.047 1.316a2.6 2.6 0 01-1.516.463c-.91 0-1.64-.39-2.192-1.17-.546-.779-.819-1.828-.819-3.146v-.772c0-1.182.172-2.216.516-3.103.349-.887.85-1.569 1.502-2.044.657-.48 1.422-.723 2.295-.728h.303zm-1.674 5.367a.861.861 0 00-.627.25c-.166.167-.29.373-.372.618v.75c0 .755.094 1.319.282 1.691.188.373.437.56.744.56.313 0 .563-.18.751-.538.189-.362.283-.826.283-1.39 0-.573-.099-1.039-.296-1.396-.193-.363-.448-.545-.765-.545z" fill="#fff"/>
</svg>
