<svg width="400" height="100" fill="none" xmlns="http://www.w3.org/2000/svg">
  <path d="M27.918 53.61v13.902H23V32h13.755c4.082 0 7.275.992 9.58 2.976 2.323 1.983 3.484 4.61 3.484 7.878 0 3.447-1.136 6.105-3.407 7.975-2.254 1.854-5.49 2.78-9.708 2.78h-8.786zm0-3.83h8.837c2.63 0 4.645-.585 6.045-1.756 1.4-1.187 2.1-2.894 2.1-5.122 0-2.113-.7-3.804-2.1-5.073-1.4-1.268-3.321-1.927-5.763-1.975h-9.119V49.78zm44.237 17.732c-.273-.52-.495-1.447-.666-2.78C69.286 66.91 66.656 68 63.6 68c-2.731 0-4.977-.732-6.736-2.195-1.742-1.48-2.613-3.35-2.613-5.61 0-2.748 1.093-4.878 3.279-6.39 2.203-1.529 5.294-2.293 9.273-2.293h4.61V49.44c0-1.577-.495-2.83-1.485-3.756-.99-.943-2.45-1.415-4.38-1.415-1.691 0-3.108.407-4.253 1.22-1.144.813-1.716 1.797-1.716 2.951h-4.764c0-1.317.486-2.585 1.46-3.805.99-1.236 2.322-2.211 3.996-2.927 1.69-.715 3.543-1.073 5.558-1.073 3.194 0 5.695.764 7.505 2.293 1.81 1.512 2.75 3.602 2.818 6.268v12.147c0 2.422.325 4.35.973 5.78v.39h-4.969zm-7.864-3.439a8.65 8.65 0 004.227-1.097c1.332-.732 2.297-1.683 2.894-2.854v-5.415h-3.714c-5.806 0-8.709 1.618-8.709 4.854 0 1.415.495 2.52 1.486 3.317.99.797 2.262 1.195 3.816 1.195zm35.426-3.561c0-1.22-.487-2.162-1.46-2.83-.957-.682-2.639-1.267-5.046-1.755-2.391-.488-4.295-1.073-5.712-1.756-1.4-.683-2.442-1.496-3.125-2.44-.666-.942-1-2.064-1-3.365 0-2.163.957-3.992 2.87-5.488 1.929-1.496 4.388-2.244 7.377-2.244 3.142 0 5.686.773 7.633 2.317 1.964 1.545 2.945 3.52 2.945 5.927h-4.764c0-1.236-.555-2.3-1.665-3.195-1.093-.894-2.476-1.341-4.15-1.341-1.724 0-3.073.357-4.047 1.073-.973.715-1.46 1.65-1.46 2.804 0 1.09.453 1.911 1.358 2.464.905.553 2.536 1.081 4.892 1.585 2.374.504 4.295 1.106 5.764 1.805 1.468.7 2.553 1.545 3.253 2.537.717.975 1.076 2.17 1.076 3.585 0 2.358-.991 4.252-2.972 5.683-1.98 1.415-4.55 2.122-7.71 2.122-2.22 0-4.184-.374-5.891-1.122-1.708-.748-3.048-1.789-4.022-3.122-.956-1.35-1.434-2.805-1.434-4.366h4.738c.086 1.512.718 2.716 1.896 3.61 1.195.878 2.766 1.317 4.713 1.317 1.793 0 3.228-.341 4.303-1.024 1.093-.7 1.64-1.626 1.64-2.78zm27.049 0c0-1.22-.486-2.162-1.46-2.83-.956-.682-2.638-1.267-5.046-1.755-2.391-.488-4.295-1.073-5.712-1.756-1.4-.683-2.442-1.496-3.125-2.44-.666-.942-.999-2.064-.999-3.365 0-2.163.956-3.992 2.869-5.488 1.929-1.496 4.388-2.244 7.377-2.244 3.142 0 5.686.773 7.633 2.317 1.964 1.545 2.946 3.52 2.946 5.927h-4.764c0-1.236-.555-2.3-1.665-3.195-1.093-.894-2.477-1.341-4.15-1.341-1.725 0-3.074.357-4.047 1.073-.974.715-1.46 1.65-1.46 2.804 0 1.09.452 1.911 1.357 2.464.905.553 2.536 1.081 4.893 1.585 2.373.504 4.295 1.106 5.763 1.805 1.469.7 2.553 1.545 3.253 2.537.717.975 1.076 2.17 1.076 3.585 0 2.358-.99 4.252-2.971 5.683-1.981 1.415-4.551 2.122-7.71 2.122-2.22 0-4.184-.374-5.892-1.122-1.708-.748-3.048-1.789-4.021-3.122-.957-1.35-1.435-2.805-1.435-4.366h4.739c.085 1.512.717 2.716 1.895 3.61 1.196.878 2.767 1.317 4.714 1.317 1.793 0 3.227-.341 4.303-1.024 1.093-.7 1.639-1.626 1.639-2.78zm35.451.781l5.328-20.171h4.739l-8.069 26.39h-3.842l-6.737-20-6.557 20h-3.842l-8.043-26.39h4.713l5.456 19.756 6.455-19.756h3.816l6.583 20.17zm24.207-10.537l6.147-9.634h5.533l-9.068 13.049 9.35 13.341h-5.482l-6.404-9.878-6.403 9.878h-5.508l9.35-13.341-9.068-13.049h5.482l6.071 9.634zM210.245 32l12.193 28.976L234.631 32h6.378v35.512h-4.918v-13.83l.461-14.926-12.244 28.756h-3.765L208.324 38.83l.487 14.854v13.83h-4.918V32h6.352zm55.816 32.902c-1.845 2.066-4.551 3.098-8.12 3.098-2.955 0-5.209-.813-6.763-2.439-1.537-1.642-2.314-4.065-2.331-7.268V41.122h4.739v17.049c0 4 1.708 6 5.123 6 3.62 0 6.028-1.285 7.223-3.854V41.122h4.739v26.39h-4.508l-.102-2.61zm31.352-9.317h5.174v3.683h-5.174v8.244h-4.764v-8.244h-16.983V56.61L292.367 32h5.046v23.585zm-16.368 0h11.604V38.171l-.564.975-11.04 16.44zm32.736-20.853v6.39h5.174v3.488h-5.174v16.366c0 1.056.231 1.853.692 2.39.461.52 1.246.78 2.356.78.547 0 1.298-.097 2.255-.292v3.658c-1.247.325-2.46.488-3.638.488-2.117 0-3.714-.61-4.79-1.83-1.076-1.219-1.614-2.95-1.614-5.194V44.61h-5.046v-3.488h5.046v-6.39h4.739zm32.557 16.366h-16.163v12.585h18.776v3.83h-23.694V32h23.437v3.854h-18.519v11.414h16.163v3.83zM376 47.658h-21.363v-3.926H376v3.926zm0 10.123h-21.363v-3.903H376v3.903z" fill="#CBCBCB"/>
  <path d="M197.845 17.345a2.153 2.153 0 012.341 0 64.553 64.553 0 0026.595 9.978c.503.07.963.316 1.296.69.333.375.516.854.516 1.35V47.91c0 16.037-9.748 27.738-28.817 34.897a2.165 2.165 0 01-1.522 0c-19.065-7.16-28.817-18.864-28.817-34.897V29.363c0-.496.184-.976.518-1.35.333-.376.795-.62 1.299-.69a64.558 64.558 0 0026.591-9.978z" fill="#00AC47"/>
  <path d="M181.504 53.524h-2.679l-.522 2.125h-2.078l3.041-10.382h1.797l3.061 10.382h-2.099l-.521-2.125zm-2.252-1.747h1.818l-.909-3.7-.909 3.7zm10.812-.62h-3.06v2.752h3.621v1.74h-5.586V45.267h5.573v1.747h-3.608v2.453h3.06v1.69zm5.807 1.768c0-.423-.102-.741-.307-.956-.201-.218-.568-.444-1.103-.677-.976-.395-1.677-.856-2.105-1.383-.427-.533-.641-1.16-.641-1.883 0-.875.289-1.576.868-2.103.584-.533 1.323-.799 2.219-.799.597 0 1.129.136 1.597.407a2.67 2.67 0 011.076 1.133c.254.49.381 1.046.381 1.669h-1.958c0-.485-.098-.853-.294-1.105-.192-.257-.47-.386-.836-.386-.343 0-.61.11-.801.328-.192.215-.288.505-.288.87 0 .286.107.545.321.778.214.228.593.466 1.136.713.949.366 1.637.815 2.065 1.348.432.532.648 1.21.648 2.032 0 .903-.27 1.609-.809 2.118-.539.508-1.271.763-2.198.763a3.587 3.587 0 01-1.717-.414 3.01 3.01 0 01-1.217-1.184c-.289-.513-.434-1.12-.434-1.818h1.971c0 .599.11 1.034.328 1.305.218.27.574.406 1.069.406.686 0 1.029-.387 1.029-1.162zm12.021 2.724h-5.733v-1.426l2.633-3.573c.334-.494.579-.927.735-1.297.16-.376.24-.735.24-1.077 0-.461-.075-.823-.227-1.084-.147-.261-.361-.392-.641-.392-.308 0-.553.152-.735.456-.178.304-.268.732-.268 1.284h-1.897c0-.637.122-1.22.367-1.747.25-.528.597-.937 1.043-1.227.45-.295.957-.442 1.523-.442.869 0 1.542.257 2.018.77.481.509.722 1.234.722 2.175 0 .585-.134 1.179-.401 1.783-.263.599-.742 1.338-1.437 2.217l-1.249 1.904h3.307v1.676zm1.384-5.106l.481-5.276h4.711v1.725h-3.161l-.174 2.225c.366-.261.742-.392 1.13-.392.801 0 1.418.304 1.851.913.436.608.654 1.468.654 2.58 0 1.042-.258 1.881-.775 2.518-.516.637-1.207.956-2.071.956-.512 0-.987-.129-1.423-.386a2.823 2.823 0 01-1.036-1.083 3.287 3.287 0 01-.381-1.57h1.871c.031.434.131.769.301 1.006.169.238.387.357.654.357.312 0 .553-.16.722-.478.169-.323.254-.803.254-1.44 0-.6-.102-1.05-.307-1.355a.96.96 0 00-.849-.457c-.356 0-.633.131-.829.393l-.12.178-1.503-.414zm11.239-5.383v1.711h-.107c-.708.005-1.272.233-1.69.685-.415.447-.666 1.074-.755 1.882.405-.494.913-.742 1.523-.742.704 0 1.265.321 1.684.963.423.642.635 1.498.635 2.567 0 .68-.12 1.293-.361 1.84-.241.547-.579.972-1.016 1.276-.432.3-.922.45-1.47.45-.882 0-1.59-.378-2.125-1.134-.53-.756-.795-1.773-.795-3.052v-.749c0-1.145.167-2.149.501-3.009.339-.86.824-1.521 1.457-1.982.637-.466 1.379-.702 2.225-.706h.294zm-1.624 5.205c-.24 0-.443.08-.608.243-.16.161-.28.36-.361.599v.727c0 .732.092 1.279.274 1.64.183.361.424.542.722.542.303 0 .546-.174.729-.52.182-.352.273-.802.273-1.348 0-.557-.095-1.008-.287-1.355-.187-.352-.434-.528-.742-.528z" fill="#fff"/>
</svg>
