<svg width="400" height="100" fill="none" xmlns="http://www.w3.org/2000/svg">
  <path fill-rule="evenodd" clip-rule="evenodd" d="M200 15c-19.89 0-36 16.11-36 36 0 15.93 10.305 29.385 24.615 34.155 1.8.315 2.475-.765 2.475-1.71 0-.855-.045-3.69-.045-6.705-9.045 1.665-11.385-2.205-12.105-4.23-.405-1.035-2.16-4.23-3.69-5.085-1.26-.675-3.06-2.34-.045-2.385 2.835-.045 4.86 2.61 5.535 3.69 3.24 5.445 8.415 3.915 10.485 2.97.315-2.34 1.26-3.915 2.295-4.815-8.01-.9-16.38-4.005-16.38-17.775 0-3.915 1.395-7.155 3.69-9.675-.36-.9-1.62-4.59.36-9.54 0 0 3.015-.945 9.9 3.69 2.88-.81 5.94-1.215 9-1.215 3.06 0 6.12.405 9 1.215 6.885-4.68 9.9-3.69 9.9-3.69 1.98 4.95.72 8.64.36 9.54 2.295 2.52 3.69 5.715 3.69 9.675 0 13.815-8.415 16.875-16.425 17.775 1.305 1.125 2.43 3.285 2.43 6.66 0 4.815-.045 8.685-.045 9.9 0 .945.675 2.07 2.475 1.71A36.056 36.056 0 00236 51c0-19.89-16.11-36-36-36z" fill="#000"/>
</svg>
