<svg width="240" height="28" fill="none" xmlns="http://www.w3.org/2000/svg">
  <path d="M26.163 12.089a.552.552 0 01-.354.707l-8.208 2.62a4.535 4.535 0 00-.166-2.373 4.535 4.535 0 00-1.454-2.063l8.142-3.05a.552.552 0 01.715.337l1.325 3.822zM19.39 26.282a.552.552 0 01-.779-.13l-4.918-7.076a4.534 4.534 0 002.22-.856 4.534 4.534 0 001.544-1.996l5.308 6.886c.19.245.14.599-.11.782l-3.264 2.39zM1.298 8.408a.552.552 0 01.71-.347l8.113 2.907a4.534 4.534 0 00-1.311 1.986 4.534 4.534 0 00-.099 2.521L.392 12.95a.552.552 0 01-.364-.702l1.27-3.84zM6.877 26.21c.25.183.602.124.78-.131l4.918-7.076a4.535 4.535 0 01-2.22-.856A4.535 4.535 0 018.81 16.15l-5.309 6.886a.552.552 0 00.111.782l3.264 2.39z" fill="#FAFAFA"/>
  <path fill-rule="evenodd" clip-rule="evenodd" d="M13 18.382a3.866 3.866 0 10.248-7.727A3.866 3.866 0 0013 18.382zm.094-2.898a.966.966 0 10.061-1.931.966.966 0 00-.061 1.931z" fill="#FAFAFA"/>
  <path d="M13.185.588l-2.15 2.085a.248.248 0 00-.075.175l-.136 9.071c-.003.222.295.488.517.488 1.107.003 3.569.259 4.12.232.092-.005.088-.106.09-.198l.036-2.415a.248.248 0 00-.077-.184l-1.347-1.281a.249.249 0 01.005-.365l1.264-1.133a.249.249 0 00.005-.366l-1.24-1.17a.249.249 0 01.006-.367l1.395-1.239a.248.248 0 00.083-.182l.013-.803a.248.248 0 00-.07-.176L13.538.594a.249.249 0 00-.352-.006zM37.86 23.16a.643.643 0 01-.433-.152.643.643 0 01-.152-.433V5.948c0-.187.05-.331.152-.433a.59.59 0 01.433-.178h6.468c1.918 0 3.429.466 4.532 1.4 1.104.934 1.655 2.283 1.655 4.049 0 1.765-.551 3.115-1.655 4.049-1.086.916-2.597 1.374-4.532 1.374H39.82v6.366a.59.59 0 01-.178.433.643.643 0 01-.433.153h-1.35zm6.34-9.09c1.24 0 2.173-.28 2.801-.84.646-.56.968-1.375.968-2.444 0-1.07-.314-1.884-.942-2.445-.628-.577-1.57-.865-2.827-.865h-4.405v6.595H44.2zm12.524 9.346a5.32 5.32 0 01-2.317-.51c-.713-.34-1.281-.797-1.706-1.375a3.393 3.393 0 01-.611-1.96c0-1.12.458-2.037 1.375-2.75.934-.73 2.19-1.206 3.769-1.426l3.794-.535v-.739c0-1.731-.993-2.597-2.98-2.597-.747 0-1.358.162-1.833.484-.475.306-.832.67-1.07 1.095a.694.694 0 01-.203.331c-.068.068-.17.102-.306.102h-1.095a.608.608 0 01-.407-.153.608.608 0 01-.153-.407c.017-.408.204-.866.56-1.375.374-.527.943-.977 1.706-1.35.764-.39 1.706-.586 2.827-.586 1.901 0 3.268.45 4.1 1.35.831.883 1.247 1.986 1.247 3.31v8.25a.59.59 0 01-.178.433.55.55 0 01-.407.153h-1.172a.643.643 0 01-.433-.153.643.643 0 01-.153-.433V21.48c-.373.544-.916 1.002-1.63 1.375-.712.374-1.62.56-2.724.56zm.535-1.91c1.103 0 2.003-.357 2.7-1.07.712-.73 1.069-1.774 1.069-3.132v-.713l-2.954.433c-1.205.17-2.114.459-2.725.866-.61.39-.916.891-.916 1.502 0 .68.28 1.206.84 1.58.56.356 1.222.534 1.986.534zm14.406 1.91c-1.188 0-2.19-.187-3.005-.56-.797-.391-1.4-.832-1.807-1.325-.39-.492-.586-.9-.586-1.222 0-.17.06-.297.178-.382a.678.678 0 01.408-.153h1.145c.17 0 .323.085.459.255.407.475.849.849 1.324 1.12.475.272 1.112.408 1.91.408.882 0 1.595-.17 2.138-.51.56-.356.84-.84.84-1.45 0-.408-.118-.74-.356-.994-.22-.272-.61-.5-1.171-.688-.543-.203-1.358-.424-2.444-.662-1.477-.322-2.53-.789-3.158-1.4-.611-.611-.917-1.4-.917-2.368 0-.645.187-1.256.56-1.833.391-.595.951-1.07 1.681-1.426.747-.374 1.638-.56 2.674-.56 1.086 0 2.011.178 2.775.534.764.357 1.333.781 1.706 1.273.39.476.586.874.586 1.197 0 .153-.06.28-.178.382a.518.518 0 01-.382.153h-1.07a.627.627 0 01-.509-.255 6.055 6.055 0 00-.713-.738c-.187-.187-.467-.348-.84-.484-.357-.136-.815-.204-1.375-.204-.815 0-1.443.179-1.885.535-.44.34-.662.79-.662 1.35 0 .356.094.662.28.916.187.238.544.459 1.07.662.543.204 1.324.416 2.343.637 1.612.34 2.75.832 3.412 1.477.679.628 1.018 1.434 1.018 2.419 0 .73-.212 1.392-.636 1.986-.425.594-1.053 1.06-1.885 1.4-.815.34-1.79.51-2.928.51zm12.98 0c-1.188 0-2.19-.187-3.004-.56-.798-.391-1.4-.832-1.808-1.325-.39-.492-.586-.9-.586-1.222 0-.17.06-.297.178-.382a.678.678 0 01.408-.153h1.146c.17 0 .322.085.458.255.407.475.849.849 1.324 1.12.475.272 1.112.408 1.91.408.882 0 1.595-.17 2.139-.51.56-.356.84-.84.84-1.45 0-.408-.119-.74-.357-.994-.22-.272-.61-.5-1.17-.688-.544-.203-1.359-.424-2.445-.662-1.477-.322-2.53-.789-3.158-1.4-.61-.611-.916-1.4-.916-2.368 0-.645.186-1.256.56-1.833.39-.595.95-1.07 1.68-1.426.747-.374 1.639-.56 2.674-.56 1.087 0 2.012.178 2.775.534.764.357 1.333.781 1.707 1.273.39.476.585.874.585 1.197 0 .153-.06.28-.178.382a.518.518 0 01-.382.153h-1.07a.627.627 0 01-.509-.255 6.062 6.062 0 00-.713-.738c-.186-.187-.467-.348-.84-.484-.356-.136-.815-.204-1.375-.204-.815 0-1.443.179-1.884.535-.442.34-.662.79-.662 1.35 0 .356.093.662.28.916.187.238.543.459 1.07.662.543.204 1.323.416 2.342.637 1.613.34 2.75.832 3.412 1.477.679.628 1.019 1.434 1.019 2.419a3.34 3.34 0 01-.637 1.986c-.424.594-1.053 1.06-1.884 1.4-.815.34-1.791.51-2.929.51zm11.563-.256c-.22 0-.39-.05-.51-.152-.118-.102-.22-.263-.305-.484L91.778 10.71l-.052-.254c0-.153.051-.28.153-.382a.577.577 0 01.382-.153h1.12c.17 0 .306.051.408.153a.581.581 0 01.23.28l2.826 9.6 3.03-9.498a.682.682 0 01.229-.357c.119-.119.28-.178.484-.178h.865c.204 0 .365.06.484.178a.677.677 0 01.229.357l3.031 9.498 2.826-9.6c.017-.085.076-.178.178-.28a.643.643 0 01.433-.153h1.146c.136 0 .255.051.356.153a.518.518 0 01.153.382l-.051.254-3.59 11.815c-.085.221-.187.382-.306.484-.118.102-.297.153-.534.153h-.993c-.459 0-.739-.212-.841-.637l-2.953-9.116-2.954 9.116c-.136.425-.424.637-.866.637h-.993zm21.977.256c-1.867 0-3.319-.527-4.354-1.58-1.019-1.052-1.562-2.452-1.63-4.2l-.025-1.095.025-1.095c.068-1.732.62-3.124 1.655-4.176 1.036-1.07 2.479-1.605 4.329-1.605 1.85 0 3.293.535 4.329 1.605 1.035 1.052 1.587 2.444 1.655 4.176.017.186.025.551.025 1.095 0 .543-.008.908-.025 1.094-.068 1.749-.62 3.15-1.655 4.202-1.019 1.052-2.462 1.579-4.329 1.579zm0-1.961c1.069 0 1.91-.34 2.521-1.019.628-.679.968-1.655 1.018-2.928.017-.17.026-.492.026-.967 0-.476-.009-.798-.026-.968-.05-1.273-.39-2.25-1.018-2.928-.611-.68-1.452-1.019-2.521-1.019s-1.918.34-2.546 1.019c-.628.679-.959 1.655-.993 2.928l-.026.968.026.967c.034 1.273.365 2.25.993 2.928.628.68 1.477 1.019 2.546 1.019zm9.783 1.705a.64.64 0 01-.432-.152.642.642 0 01-.153-.433V10.531c0-.17.051-.314.153-.433a.587.587 0 01.432-.178h1.172c.17 0 .314.06.433.178a.588.588 0 01.178.433v1.12c.696-1.154 1.884-1.731 3.565-1.731h.993c.17 0 .305.06.407.178a.51.51 0 01.179.408v1.044a.51.51 0 01-.179.407.55.55 0 01-.407.153h-1.528c-.917 0-1.638.272-2.164.815-.527.526-.79 1.247-.79 2.164v7.486c0 .17-.059.314-.178.433a.643.643 0 01-.433.153h-1.248zm13.652.256c-1.765 0-3.098-.578-3.997-1.732-.9-1.154-1.375-2.614-1.426-4.38l-.026-.763.026-.764c.051-1.749.526-3.2 1.426-4.355.899-1.17 2.232-1.757 3.997-1.757 1.749 0 3.124.62 4.125 1.86V5.667a.55.55 0 01.153-.408.59.59 0 01.433-.178h1.222c.17 0 .306.06.408.178a.509.509 0 01.178.408v16.907c0 .17-.059.314-.178.433a.552.552 0 01-.408.153h-1.146a.64.64 0 01-.432-.153.642.642 0 01-.153-.433v-1.07c-.985 1.274-2.385 1.91-4.202 1.91zm.535-2.063c1.171 0 2.046-.382 2.623-1.146.594-.78.917-1.706.967-2.775.017-.187.026-.51.026-.968 0-.475-.009-.806-.026-.993-.034-1.002-.356-1.876-.967-2.623-.611-.747-1.486-1.12-2.623-1.12-1.205 0-2.088.373-2.648 1.12-.543.747-.84 1.732-.891 2.954l-.026.739c0 3.208 1.189 4.812 3.565 4.812zm18.04 1.808a.64.64 0 01-.433-.153.642.642 0 01-.153-.432V5.948c0-.187.051-.331.153-.433a.588.588 0 01.433-.178h1.273c.186 0 .331.06.433.178a.542.542 0 01.178.433v6.315l6.799-6.519a1.35 1.35 0 01.993-.407h1.375a.49.49 0 01.356.153c.102.102.153.22.153.356a.513.513 0 01-.102.331l-7.868 7.69 8.377 8.428a.54.54 0 01.128.357.488.488 0 01-.153.356.49.49 0 01-.357.153h-1.426c-.373 0-.704-.144-.993-.433l-7.282-7.155v7.003c0 .17-.06.314-.178.432a.644.644 0 01-.433.153h-1.273zm18.901.255c-1.748 0-3.149-.535-4.201-1.604-1.036-1.087-1.604-2.564-1.706-4.431l-.026-.866.026-.84c.119-1.833.696-3.293 1.731-4.38 1.053-1.086 2.436-1.63 4.151-1.63 1.884 0 3.344.603 4.379 1.809 1.036 1.188 1.554 2.8 1.554 4.838v.432a.59.59 0 01-.179.433.548.548 0 01-.407.153h-8.81v.23c.051 1.103.382 2.045.993 2.826.628.764 1.451 1.146 2.47 1.146.781 0 1.417-.153 1.91-.459.509-.322.882-.653 1.12-.993.153-.204.263-.322.331-.356.085-.051.229-.077.433-.077h1.248c.152 0 .28.043.381.128a.438.438 0 01.153.356c0 .373-.237.823-.713 1.35-.458.526-1.112.984-1.96 1.375-.832.373-1.791.56-2.878.56zm3.489-7.843v-.076c0-1.172-.323-2.122-.968-2.852-.628-.747-1.477-1.12-2.546-1.12-1.07 0-1.918.373-2.547 1.12-.611.73-.916 1.68-.916 2.852v.076h6.977zm10.76 7.843c-1.749 0-3.149-.535-4.202-1.604-1.035-1.087-1.604-2.564-1.706-4.431l-.025-.866.025-.84c.119-1.833.696-3.293 1.732-4.38 1.052-1.086 2.436-1.63 4.15-1.63 1.885 0 3.344.603 4.38 1.809 1.035 1.188 1.553 2.8 1.553 4.838v.432c0 .17-.059.314-.178.433a.55.55 0 01-.407.153h-8.811v.23c.051 1.103.382 2.045.993 2.826.628.764 1.452 1.146 2.47 1.146.781 0 1.418-.153 1.91-.459.509-.322.883-.653 1.12-.993.153-.204.264-.322.331-.356.085-.051.23-.077.433-.077h1.248c.153 0 .28.043.382.128a.438.438 0 01.153.356c0 .373-.238.823-.713 1.35-.459.526-1.112.984-1.961 1.375-.832.373-1.791.56-2.877.56zm3.488-7.843v-.076c0-1.172-.322-2.122-.967-2.852-.629-.747-1.477-1.12-2.547-1.12-1.069 0-1.918.373-2.546 1.12-.611.73-.917 1.68-.917 2.852v.076h6.977zM202.908 28a.59.59 0 01-.433-.179.55.55 0 01-.153-.407V10.506a.55.55 0 01.153-.408.59.59 0 01.433-.178h1.171c.17 0 .306.06.408.178a.51.51 0 01.178.408v1.12c.951-1.307 2.343-1.96 4.176-1.96 1.782 0 3.115.56 3.998 1.68.899 1.12 1.383 2.563 1.451 4.329.017.187.026.475.026.866 0 .39-.009.679-.026.866-.068 1.748-.552 3.19-1.451 4.328-.9 1.12-2.233 1.68-3.998 1.68-1.766 0-3.141-.636-4.125-1.909v5.908a.55.55 0 01-.153.407.51.51 0 01-.407.178h-1.248zm5.398-6.647c1.205 0 2.08-.373 2.623-1.12.56-.747.866-1.732.917-2.954.017-.17.025-.416.025-.738 0-3.209-1.188-4.813-3.565-4.813-1.171 0-2.054.39-2.648 1.171-.577.764-.891 1.681-.942 2.75l-.026.968.026.993c.034 1.002.356 1.876.967 2.623.612.747 1.486 1.12 2.623 1.12zm14.456 2.063c-1.749 0-3.149-.535-4.202-1.604-1.035-1.087-1.604-2.564-1.706-4.431l-.025-.866.025-.84c.119-1.833.696-3.293 1.732-4.38 1.052-1.086 2.436-1.63 4.15-1.63 1.885 0 3.344.603 4.38 1.809 1.035 1.188 1.553 2.8 1.553 4.838v.432c0 .17-.059.314-.178.433a.55.55 0 01-.407.153h-8.811v.23c.051 1.103.382 2.045.993 2.826.628.764 1.452 1.146 2.47 1.146.781 0 1.418-.153 1.91-.459.509-.322.883-.653 1.12-.993.153-.204.264-.322.331-.356.085-.051.23-.077.433-.077h1.248c.153 0 .28.043.382.128a.438.438 0 01.153.356c0 .373-.238.823-.713 1.35-.459.526-1.112.984-1.961 1.375-.832.373-1.791.56-2.877.56zm3.488-7.843v-.076c0-1.172-.322-2.122-.967-2.852-.628-.747-1.477-1.12-2.547-1.12-1.069 0-1.918.373-2.546 1.12-.611.73-.917 1.68-.917 2.852v.076h6.977zm6.05 7.588a.64.64 0 01-.433-.153.642.642 0 01-.153-.432V10.53c0-.17.051-.314.153-.433a.588.588 0 01.433-.178h1.171c.17 0 .314.06.433.178a.589.589 0 01.178.433v1.12c.696-1.153 1.884-1.73 3.565-1.73h.993c.17 0 .305.059.407.178a.51.51 0 01.179.407v1.044a.51.51 0 01-.179.407.55.55 0 01-.407.153h-1.528c-.917 0-1.638.272-2.164.815-.527.526-.79 1.248-.79 2.164v7.487c0 .17-.059.314-.178.432a.642.642 0 01-.433.153H232.3z" fill="#FAFAFA"/>
</svg>
