<svg width="277" height="32" fill="none" xmlns="http://www.w3.org/2000/svg">
  <path d="M30.884 14.27a.652.652 0 01-.418.835l-9.69 3.093a5.352 5.352 0 00-.196-2.802 5.353 5.353 0 00-1.715-2.434l9.61-3.6a.652.652 0 01.845.397l1.564 4.511zM22.89 31.025a.652.652 0 01-.92-.154l-5.806-8.352a5.353 5.353 0 002.62-1.011 5.353 5.353 0 001.823-2.356l6.266 8.128a.652.652 0 01-.131.923l-3.852 2.822zM1.533 9.925a.652.652 0 01.838-.41l9.576 3.432a5.352 5.352 0 00-1.548 2.345 5.352 5.352 0 00-.116 2.976l-9.82-2.982a.652.652 0 01-.43-.828l1.5-4.533zm6.585 21.013a.652.652 0 00.92-.153l5.806-8.353a5.353 5.353 0 01-2.621-1.01 5.352 5.352 0 01-1.822-2.356l-6.267 8.127a.652.652 0 00.131.924l3.853 2.821z" fill="#2684FC"/>
  <path fill-rule="evenodd" clip-rule="evenodd" d="M15.347 21.7a4.563 4.563 0 10.291-9.121 4.563 4.563 0 00-.291 9.12zm.109-3.42a1.14 1.14 0 10.073-2.281 1.14 1.14 0 00-.073 2.28z" fill="#0066DA"/>
  <path d="M15.564.695l-2.537 2.462a.293.293 0 00-.09.206l-.16 10.708c-.004.261.349.575.61.576 1.307.003 4.213.305 4.863.273.11-.005.105-.124.107-.233l.042-2.85a.294.294 0 00-.09-.218l-1.59-1.512a.294.294 0 01.006-.432l1.492-1.336a.293.293 0 00.005-.432L16.76 6.525a.293.293 0 01.006-.433l1.647-1.463a.294.294 0 00.099-.214l.015-.948a.293.293 0 00-.082-.208L15.979.702a.293.293 0 00-.415-.007z" fill="#0066DA"/>
  <path d="M38.721 26.29c-.2 0-.37-.061-.511-.181a.759.759 0 01-.18-.511V5.97c0-.22.06-.39.18-.51a.692.692 0 01.511-.211h7.635c2.264 0 4.047.55 5.35 1.653 1.302 1.102 1.954 2.695 1.954 4.78 0 2.083-.652 3.676-1.954 4.778-1.283 1.082-3.066 1.623-5.35 1.623h-5.32v7.515c0 .2-.07.37-.211.51a.754.754 0 01-.511.181h-1.593zm7.484-10.731c1.463 0 2.565-.331 3.307-.992.761-.662 1.142-1.623 1.142-2.886 0-1.262-.37-2.224-1.112-2.885-.742-.682-1.854-1.022-3.337-1.022h-5.2v7.785h5.2zM60.989 26.59a6.28 6.28 0 01-2.735-.601c-.842-.401-1.513-.942-2.014-1.623a4.005 4.005 0 01-.722-2.315c0-1.322.541-2.405 1.623-3.246 1.102-.862 2.585-1.423 4.449-1.683l4.478-.632v-.871c0-2.044-1.172-3.066-3.516-3.066-.882 0-1.603.19-2.164.57-.561.362-.982.792-1.263 1.293-.06.18-.14.311-.24.391-.08.08-.2.12-.361.12h-1.293c-.18 0-.34-.06-.48-.18a.718.718 0 01-.18-.48c.02-.482.24-1.023.66-1.624.441-.621 1.113-1.152 2.014-1.593.902-.46 2.014-.691 3.337-.691 2.244 0 3.857.53 4.84 1.593.981 1.042 1.472 2.344 1.472 3.907v9.739c0 .2-.07.37-.21.51a.65.65 0 01-.481.181H66.82c-.2 0-.37-.06-.511-.18a.759.759 0 01-.18-.511v-1.293c-.441.642-1.083 1.183-1.924 1.623-.842.441-1.914.662-3.216.662zm.631-2.255c1.303 0 2.364-.42 3.186-1.262.842-.862 1.263-2.094 1.263-3.697v-.842l-3.487.511c-1.423.2-2.495.541-3.216 1.022-.722.461-1.082 1.052-1.082 1.774 0 .801.33 1.422.992 1.863.66.421 1.442.631 2.344.631zm17.005 2.255c-1.402 0-2.585-.22-3.546-.662-.942-.46-1.654-.981-2.135-1.563-.46-.58-.69-1.062-.69-1.442 0-.2.07-.351.21-.451a.8.8 0 01.48-.18h1.353c.2 0 .38.1.541.3a5.975 5.975 0 001.563 1.323c.561.32 1.313.48 2.254.48 1.042 0 1.884-.2 2.525-.6.661-.421.992-.993.992-1.714 0-.48-.14-.872-.42-1.172-.261-.32-.722-.591-1.383-.812-.642-.24-1.603-.5-2.886-.781-1.743-.38-2.986-.932-3.727-1.653-.721-.722-1.082-1.654-1.082-2.796 0-.761.22-1.483.661-2.164.461-.701 1.122-1.262 1.984-1.683.882-.441 1.934-.661 3.156-.661 1.282 0 2.375.21 3.276.63.902.422 1.573.923 2.014 1.504.461.56.692 1.032.692 1.412a.57.57 0 01-.21.451.617.617 0 01-.452.18h-1.262a.74.74 0 01-.601-.3 7.154 7.154 0 00-.842-.872c-.22-.22-.551-.41-.992-.57-.42-.161-.962-.241-1.623-.241-.962 0-1.703.21-2.224.631-.521.4-.782.932-.782 1.593 0 .42.11.782.33 1.082.221.28.642.541 1.263.782.642.24 1.563.49 2.766.751 1.903.4 3.246.982 4.027 1.743.802.742 1.203 1.694 1.203 2.856a3.94 3.94 0 01-.752 2.344c-.5.702-1.242 1.253-2.224 1.654-.962.4-2.114.6-3.457.6zm15.323 0c-1.403 0-2.585-.22-3.547-.662-.942-.46-1.653-.981-2.134-1.563-.461-.58-.692-1.062-.692-1.442 0-.2.07-.351.21-.451a.8.8 0 01.482-.18h1.352c.2 0 .381.1.541.3a5.975 5.975 0 001.563 1.323c.561.32 1.313.48 2.255.48 1.042 0 1.883-.2 2.525-.6.66-.421.991-.993.991-1.714 0-.48-.14-.872-.42-1.172-.26-.32-.722-.591-1.383-.812-.641-.24-1.603-.5-2.886-.781-1.743-.38-2.985-.932-3.727-1.653-.721-.722-1.082-1.654-1.082-2.796 0-.761.22-1.483.662-2.164.46-.701 1.122-1.262 1.983-1.683.882-.441 1.934-.661 3.156-.661 1.283 0 2.375.21 3.277.63.901.422 1.573.923 2.014 1.504.46.56.69 1.032.69 1.412a.57.57 0 01-.21.451.61.61 0 01-.45.18h-1.263a.74.74 0 01-.601-.3 7.17 7.17 0 00-.842-.872c-.22-.22-.55-.41-.992-.57-.42-.161-.961-.241-1.623-.241-.962 0-1.703.21-2.224.631-.52.4-.781.932-.781 1.593 0 .42.11.782.33 1.082.22.28.641.541 1.263.782.64.24 1.563.49 2.765.751 1.904.4 3.246.982 4.028 1.743.801.742 1.202 1.694 1.202 2.856 0 .862-.251 1.643-.751 2.344-.501.702-1.243 1.253-2.225 1.654-.962.4-2.114.6-3.456.6zm13.649-.3c-.261 0-.461-.061-.602-.181-.14-.12-.26-.31-.36-.571l-4.268-13.947-.061-.3c0-.18.061-.331.181-.452a.68.68 0 01.451-.18h1.322a.65.65 0 01.481.18c.14.1.231.21.271.331l3.336 11.332 3.577-11.212c.04-.16.13-.3.27-.42.141-.14.331-.21.572-.21h1.021c.241 0 .431.07.572.21.14.12.23.26.27.42l3.577 11.212 3.336-11.332c.02-.1.091-.21.211-.33.14-.12.31-.18.511-.18h1.352c.161 0 .301.06.421.18s.18.27.18.45l-.06.301-4.238 13.947c-.1.26-.22.45-.36.57-.141.121-.351.181-.632.181h-1.172c-.541 0-.872-.25-.992-.751l-3.487-10.76-3.486 10.76c-.161.5-.501.751-1.022.751h-1.172zm25.942.3c-2.204 0-3.918-.622-5.14-1.864-1.202-1.242-1.843-2.895-1.924-4.96l-.03-1.292.03-1.292c.081-2.044.732-3.687 1.954-4.93 1.222-1.262 2.926-1.893 5.11-1.893s3.887.63 5.11 1.893c1.222 1.243 1.873 2.886 1.953 4.93.02.22.03.65.03 1.292 0 .641-.01 1.072-.03 1.293-.08 2.064-.731 3.717-1.953 4.96-1.203 1.241-2.906 1.863-5.11 1.863zm0-2.315c1.262 0 2.254-.4 2.976-1.202.741-.802 1.142-1.954 1.202-3.457.02-.2.03-.58.03-1.142 0-.56-.01-.942-.03-1.142-.06-1.503-.461-2.655-1.202-3.457-.722-.801-1.714-1.202-2.976-1.202-1.263 0-2.264.4-3.006 1.202-.741.802-1.132 1.954-1.172 3.457l-.03 1.142.03 1.142c.04 1.503.431 2.655 1.172 3.457.742.802 1.743 1.202 3.006 1.202zm11.549 2.015a.757.757 0 01-.511-.181.755.755 0 01-.181-.511V11.38c0-.2.06-.371.181-.511.14-.14.31-.21.511-.21h1.382c.201 0 .371.07.511.21.14.14.211.31.211.51v1.323c.821-1.362 2.224-2.044 4.208-2.044h1.172c.2 0 .361.07.481.21.14.12.21.281.21.482v1.232a.6.6 0 01-.21.48.65.65 0 01-.481.181h-1.804c-1.082 0-1.933.32-2.554.962-.622.621-.932 1.473-.932 2.555v8.837c0 .2-.07.37-.211.51a.754.754 0 01-.511.181h-1.472zm16.115.3c-2.084 0-3.657-.682-4.719-2.044-1.062-1.363-1.623-3.086-1.684-5.17l-.03-.902.03-.902c.061-2.063.622-3.777 1.684-5.14 1.062-1.382 2.635-2.073 4.719-2.073 2.064 0 3.687.731 4.869 2.194V5.64c0-.2.06-.361.18-.481a.698.698 0 01.511-.21h1.443a.6.6 0 01.481.21.6.6 0 01.21.48v19.959c0 .2-.07.37-.21.51a.646.646 0 01-.481.181h-1.352a.757.757 0 01-.511-.18.755.755 0 01-.181-.511v-1.263c-1.162 1.503-2.815 2.255-4.959 2.255zm.631-2.435c1.383 0 2.415-.45 3.096-1.353.701-.921 1.082-2.013 1.142-3.276.02-.22.03-.601.03-1.142 0-.561-.01-.952-.03-1.172-.04-1.183-.421-2.214-1.142-3.096-.722-.882-1.754-1.323-3.096-1.323-1.423 0-2.465.441-3.126 1.323-.641.882-.992 2.044-1.052 3.486l-.03.872c0 3.787 1.403 5.681 4.208 5.681z" fill="#2684FC"/>
  <path d="M183.128 26.29a.76.76 0 01-.511-.181.76.76 0 01-.18-.511V5.97c0-.22.06-.39.18-.51a.698.698 0 01.511-.211h1.503c.221 0 .391.07.511.21.14.12.21.291.21.511v7.455l8.026-7.695c.32-.32.711-.481 1.172-.481h1.623c.161 0 .301.06.421.18s.18.26.18.421c0 .16-.04.29-.12.39l-9.288 9.078 9.889 9.95c.1.12.151.26.151.42 0 .16-.061.3-.181.421-.12.12-.26.18-.421.18h-1.683c-.441 0-.831-.17-1.172-.51l-8.597-8.447v8.266c0 .2-.07.37-.21.511a.759.759 0 01-.511.18h-1.503zm22.312.3c-2.064 0-3.717-.631-4.959-1.894-1.222-1.282-1.894-3.026-2.014-5.23l-.03-1.022.03-.992c.14-2.164.822-3.887 2.044-5.17 1.242-1.282 2.875-1.923 4.899-1.923 2.225 0 3.948.711 5.17 2.134 1.223 1.403 1.834 3.306 1.834 5.71v.512c0 .2-.07.37-.211.51a.646.646 0 01-.481.181h-10.4v.27c.061 1.303.451 2.415 1.173 3.337.741.902 1.713 1.353 2.915 1.353.922 0 1.674-.18 2.255-.541.601-.381 1.042-.772 1.322-1.173.181-.24.311-.38.391-.42.1-.06.27-.09.511-.09h1.473c.18 0 .33.05.451.15.12.1.18.24.18.42 0 .441-.281.972-.842 1.594-.541.62-1.312 1.162-2.314 1.623-.982.44-2.114.66-3.397.66zm4.118-9.258v-.09c0-1.383-.38-2.505-1.142-3.366-.741-.882-1.743-1.323-3.006-1.323-1.262 0-2.264.44-3.005 1.323-.722.861-1.083 1.983-1.083 3.366v.09h8.236zm12.702 9.258c-2.064 0-3.717-.631-4.96-1.894-1.222-1.282-1.893-3.026-2.014-5.23l-.03-1.022.03-.992c.141-2.164.822-3.887 2.044-5.17 1.243-1.282 2.876-1.923 4.9-1.923 2.224 0 3.947.711 5.17 2.134 1.222 1.403 1.833 3.306 1.833 5.71v.512c0 .2-.07.37-.21.51a.652.652 0 01-.481.181h-10.4v.27c.06 1.303.451 2.415 1.172 3.337.741.902 1.713 1.353 2.916 1.353.921 0 1.673-.18 2.254-.541.601-.381 1.042-.772 1.323-1.173.18-.24.31-.38.39-.42.1-.06.271-.09.511-.09h1.473c.18 0 .331.05.451.15.12.1.18.24.18.42 0 .441-.28.972-.841 1.594-.541.62-1.313 1.162-2.315 1.623-.982.44-2.114.66-3.396.66zm4.118-9.258v-.09c0-1.383-.381-2.505-1.143-3.366-.741-.882-1.743-1.323-3.005-1.323-1.263 0-2.265.44-3.006 1.323-.721.861-1.082 1.983-1.082 3.366v.09h8.236zM233.548 32c-.2 0-.37-.07-.511-.21a.65.65 0 01-.18-.481V11.351c0-.2.06-.361.18-.481a.697.697 0 01.511-.21h1.383c.2 0 .361.07.481.21a.6.6 0 01.21.48v1.323c1.123-1.543 2.766-2.314 4.93-2.314 2.104 0 3.677.661 4.719 1.984 1.062 1.322 1.633 3.025 1.713 5.11.02.22.03.56.03 1.021 0 .461-.01.802-.03 1.022-.08 2.064-.651 3.768-1.713 5.11-1.062 1.323-2.635 1.984-4.719 1.984-2.084 0-3.707-.752-4.869-2.254v6.973c0 .2-.061.36-.181.48a.6.6 0 01-.481.211h-1.473zm6.373-7.845c1.422 0 2.454-.44 3.096-1.322.661-.882 1.022-2.044 1.082-3.487.02-.2.03-.49.03-.872 0-3.787-1.403-5.68-4.208-5.68-1.383 0-2.425.46-3.126 1.382-.682.902-1.052 1.984-1.112 3.246l-.031 1.142.031 1.173c.04 1.182.42 2.214 1.142 3.096.721.881 1.753 1.322 3.096 1.322zm17.063 2.435c-2.063 0-3.717-.631-4.959-1.894-1.222-1.282-1.894-3.026-2.014-5.23l-.03-1.022.03-.992c.14-2.164.822-3.887 2.044-5.17 1.242-1.282 2.876-1.923 4.899-1.923 2.225 0 3.948.711 5.17 2.134 1.223 1.403 1.834 3.306 1.834 5.71v.512c0 .2-.07.37-.211.51a.645.645 0 01-.48.181h-10.4v.27c.06 1.303.45 2.415 1.172 3.337.741.902 1.713 1.353 2.915 1.353.922 0 1.674-.18 2.255-.541.601-.381 1.042-.772 1.322-1.173.181-.24.311-.38.391-.42.1-.06.271-.09.511-.09h1.473c.18 0 .33.05.451.15.12.1.18.24.18.42 0 .441-.281.972-.842 1.594-.541.62-1.312 1.162-2.314 1.623-.982.44-2.114.66-3.397.66zm4.118-9.258v-.09c0-1.383-.38-2.505-1.142-3.366-.741-.882-1.743-1.323-3.006-1.323-1.262 0-2.264.44-3.005 1.323-.722.861-1.082 1.983-1.082 3.366v.09h8.235zm7.141 8.958c-.2 0-.371-.06-.511-.181a.76.76 0 01-.18-.511V11.381c0-.2.06-.37.18-.511.14-.14.311-.21.511-.21h1.383c.2 0 .371.07.511.21.14.14.21.31.21.51v1.323c.822-1.362 2.224-2.044 4.208-2.044h1.173c.2 0 .36.07.48.21a.6.6 0 01.211.482v1.232a.6.6 0 01-.211.481c-.12.12-.28.18-.48.18h-1.804c-1.082 0-1.934.321-2.555.962-.621.621-.932 1.473-.932 2.555v8.837c0 .2-.07.37-.21.511a.759.759 0 01-.511.18h-1.473z" fill="#0066DA"/>
</svg>
