<svg width="280" height="34" viewBox="0 0 280 34" fill="none" xmlns="http://www.w3.org/2000/svg">
<path d="M30.8837 14.2702C31.0037 14.6163 30.8151 14.9933 30.4661 15.1047L20.7762 18.1983C20.9556 17.2934 20.9043 16.3304 20.5803 15.3959C20.2358 14.4022 19.6291 13.574 18.8645 12.9619L28.4752 9.36193C28.8182 9.23343 29.1997 9.41274 29.3197 9.75884L30.8837 14.2702Z" fill="#2684FC"/>
<path d="M22.8895 31.0247C22.594 31.2411 22.1782 31.1716 21.9691 30.8709L16.1635 22.5187C17.0811 22.4241 17.9865 22.092 18.7844 21.5076C19.633 20.8861 20.2462 20.0628 20.6065 19.152L26.8728 27.2796C27.0965 27.5697 27.0373 27.987 26.7417 28.2035L22.8895 31.0247Z" fill="#2684FC"/>
<path d="M1.53257 9.92479C1.6476 9.57702 2.02652 9.39227 2.37136 9.51585L11.9468 12.9474C11.2544 13.557 10.71 14.353 10.3994 15.292C10.0691 16.2906 10.0476 17.317 10.2829 18.2678L0.462688 15.2865C0.112175 15.1801 -0.0818622 14.8059 0.0331669 14.4581L1.53257 9.92479Z" fill="#2684FC"/>
<path d="M8.1177 30.9384C8.41323 31.1549 8.82902 31.0854 9.03809 30.7846L14.8437 22.4324C13.9261 22.3378 13.0207 22.0057 12.2228 21.4213C11.3742 20.7999 10.761 19.9765 10.4007 19.0657L4.13439 27.1933C3.91073 27.4834 3.96995 27.9008 4.26548 28.1172L8.1177 30.9384Z" fill="#2684FC"/>
<path fill-rule="evenodd" clip-rule="evenodd" d="M15.3467 21.6997C17.8654 21.7802 19.9725 19.8036 20.053 17.2848C20.1335 14.7661 18.1569 12.659 15.6381 12.5785C13.1194 12.498 11.0122 14.4746 10.9318 16.9934C10.8513 19.5121 12.8279 21.6193 15.3467 21.6997ZM15.456 18.2793C16.0857 18.2994 16.6124 17.8052 16.6326 17.1755C16.6527 16.5458 16.1585 16.0191 15.5288 15.9989C14.8991 15.9788 14.3724 16.473 14.3522 17.1027C14.3321 17.7324 14.8263 18.2591 15.456 18.2793Z" fill="#0066DA"/>
<path d="M15.5637 0.695393L13.0267 3.15676C12.9709 3.21097 12.9388 3.28516 12.9377 3.363L12.7773 14.0707C12.7733 14.3321 13.1256 14.6464 13.3871 14.647C14.6937 14.6498 17.6 14.9519 18.2505 14.9203C18.3591 14.915 18.355 14.7957 18.3566 14.6869L18.3993 11.8361C18.4005 11.7542 18.3675 11.6756 18.3082 11.6191L16.7184 10.1065C16.5943 9.9884 16.5973 9.78959 16.7248 9.67529L18.2166 8.33868C18.3445 8.22407 18.3471 8.0246 18.2222 7.9067L16.7587 6.52519C16.6334 6.40695 16.6364 6.20678 16.7652 6.09238L18.412 4.62946C18.4734 4.57489 18.5091 4.49706 18.5105 4.41489L18.5261 3.46713C18.5274 3.38949 18.4978 3.3145 18.4439 3.2586L15.9793 0.702328C15.8666 0.585389 15.6803 0.582281 15.5637 0.695393Z" fill="#0066DA"/>
<path d="M41.6913 27.3409C41.4909 27.3409 41.3206 27.2808 41.1803 27.1606C41.0601 27.0203 41 26.85 41 26.6496V7.02196C41 6.80154 41.0601 6.63121 41.1803 6.51098C41.3206 6.37071 41.4909 6.30058 41.6913 6.30058H49.326C51.5903 6.30058 53.3737 6.85163 54.6762 7.95374C55.9787 9.05586 56.63 10.6489 56.63 12.7329C56.63 14.8169 55.9787 16.41 54.6762 17.5121C53.3938 18.5941 51.6103 19.1352 49.326 19.1352H44.0058V26.6496C44.0058 26.85 43.9356 27.0203 43.7954 27.1606C43.6551 27.2808 43.4848 27.3409 43.2844 27.3409H41.6913ZM49.1757 16.6103C50.6385 16.6103 51.7406 16.2797 52.482 15.6184C53.2435 14.9572 53.6242 13.9953 53.6242 12.7329C53.6242 11.4705 53.2535 10.5086 52.5121 9.84737C51.7706 9.16607 50.6585 8.82541 49.1757 8.82541H43.9757V16.6103H49.1757Z" fill="#2684FC"/>
<path d="M63.9591 27.6415C62.9772 27.6415 62.0655 27.4411 61.2238 27.0403C60.3822 26.6396 59.7109 26.0985 59.21 25.4172C58.7291 24.7159 58.4886 23.9444 58.4886 23.1028C58.4886 21.7802 59.0296 20.6982 60.1117 19.8566C61.2138 18.9949 62.6967 18.4338 64.5602 18.1733L69.0388 17.5421V16.6705C69.0388 14.6265 67.8666 13.6046 65.5221 13.6046C64.6404 13.6046 63.919 13.7949 63.3579 14.1757C62.7969 14.5364 62.3761 14.9672 62.0955 15.4681C62.0354 15.6485 61.9552 15.7787 61.8551 15.8589C61.7749 15.939 61.6547 15.9791 61.4944 15.9791H60.2019C60.0215 15.9791 59.8612 15.919 59.721 15.7988C59.6007 15.6585 59.5406 15.4982 59.5406 15.3179C59.5607 14.8369 59.7811 14.2959 60.2019 13.6947C60.6427 13.0736 61.314 12.5425 62.2157 12.1017C63.1175 11.6408 64.2296 11.4104 65.5521 11.4104C67.7964 11.4104 69.4095 11.9414 70.3914 13.0034C71.3733 14.0454 71.8642 15.3479 71.8642 16.9109V26.6496C71.8642 26.85 71.7941 27.0203 71.6538 27.1606C71.5336 27.2808 71.3733 27.3409 71.1729 27.3409H69.7903C69.5899 27.3409 69.4196 27.2808 69.2793 27.1606C69.1591 27.0203 69.0989 26.85 69.0989 26.6496V25.3571C68.6581 25.9983 68.0169 26.5394 67.1752 26.9802C66.3336 27.4211 65.2616 27.6415 63.9591 27.6415ZM64.5903 25.3872C65.8928 25.3872 66.9548 24.9664 67.7764 24.1247C68.618 23.2631 69.0388 22.0307 69.0388 20.4277V19.586L65.5521 20.097C64.1294 20.2974 63.0574 20.6381 62.336 21.119C61.6146 21.5799 61.2539 22.171 61.2539 22.8924C61.2539 23.6939 61.5845 24.3151 62.2458 24.7559C62.9071 25.1768 63.6886 25.3872 64.5903 25.3872Z" fill="#2684FC"/>
<path d="M81.5956 27.6415C80.1929 27.6415 79.0107 27.4211 78.0488 26.9802C77.107 26.5193 76.3957 25.9983 75.9147 25.4172C75.4538 24.8361 75.2234 24.3552 75.2234 23.9745C75.2234 23.7741 75.2935 23.6238 75.4338 23.5236C75.5941 23.4034 75.7544 23.3432 75.9147 23.3432H77.2673C77.4677 23.3432 77.6481 23.4434 77.8084 23.6438C78.2893 24.2049 78.8103 24.6457 79.3714 24.9664C79.9324 25.287 80.6839 25.4473 81.6257 25.4473C82.6677 25.4473 83.5093 25.2469 84.1505 24.8461C84.8118 24.4253 85.1424 23.8542 85.1424 23.1328C85.1424 22.6519 85.0022 22.2612 84.7216 21.9606C84.4611 21.64 84.0002 21.3695 83.339 21.149C82.6977 20.9086 81.7359 20.6481 80.4534 20.3675C78.7101 19.9868 77.4677 19.4358 76.7263 18.7144C76.0049 17.993 75.6442 17.0612 75.6442 15.919C75.6442 15.1576 75.8646 14.4362 76.3055 13.7549C76.7664 13.0535 77.4276 12.4924 78.2893 12.0716C79.171 11.6308 80.223 11.4104 81.4453 11.4104C82.7278 11.4104 83.8199 11.6208 84.7216 12.0416C85.6233 12.4624 86.2946 12.9633 86.7355 13.5445C87.1964 14.1055 87.4268 14.5764 87.4268 14.9572C87.4268 15.1375 87.3567 15.2878 87.2164 15.408C87.0962 15.5283 86.9459 15.5884 86.7655 15.5884H85.5031C85.2627 15.5884 85.0623 15.4882 84.902 15.2878C84.5813 14.9071 84.3008 14.6165 84.0603 14.4161C83.8399 14.1957 83.5093 14.0053 83.0684 13.845C82.6476 13.6847 82.1066 13.6046 81.4453 13.6046C80.4835 13.6046 79.7421 13.815 79.2211 14.2358C78.7001 14.6366 78.4396 15.1676 78.4396 15.8288C78.4396 16.2496 78.5498 16.6103 78.7702 16.9109C78.9906 17.1915 79.4114 17.452 80.0326 17.6924C80.6739 17.9329 81.5956 18.1834 82.7979 18.4439C84.7016 18.8446 86.0441 19.4257 86.8256 20.1872C87.6272 20.9286 88.028 21.8804 88.028 23.0427C88.028 23.9043 87.7775 24.6858 87.2765 25.3872C86.7756 26.0885 86.0341 26.6396 85.0522 27.0403C84.0904 27.4411 82.9382 27.6415 81.5956 27.6415Z" fill="#2684FC"/>
<path d="M96.918 27.6415C95.5153 27.6415 94.333 27.4211 93.3712 26.9802C92.4294 26.5193 91.718 25.9983 91.2371 25.4172C90.7762 24.8361 90.5457 24.3552 90.5457 23.9745C90.5457 23.7741 90.6159 23.6238 90.7561 23.5236C90.9165 23.4034 91.0768 23.3432 91.2371 23.3432H92.5897C92.7901 23.3432 92.9704 23.4434 93.1307 23.6438C93.6116 24.2049 94.1326 24.6457 94.6937 24.9664C95.2548 25.287 96.0062 25.4473 96.948 25.4473C97.99 25.4473 98.8316 25.2469 99.4729 24.8461C100.134 24.4253 100.465 23.8542 100.465 23.1328C100.465 22.6519 100.324 22.2612 100.044 21.9606C99.7835 21.64 99.3226 21.3695 98.6613 21.149C98.0201 20.9086 97.0582 20.6481 95.7758 20.3675C94.0324 19.9868 92.79 19.4358 92.0486 18.7144C91.3272 17.993 90.9666 17.0612 90.9666 15.919C90.9666 15.1576 91.187 14.4362 91.6278 13.7549C92.0887 13.0535 92.75 12.4924 93.6116 12.0716C94.4933 11.6308 95.5453 11.4104 96.7677 11.4104C98.0501 11.4104 99.1422 11.6208 100.044 12.0416C100.946 12.4624 101.617 12.9633 102.058 13.5445C102.519 14.1055 102.749 14.5764 102.749 14.9572C102.749 15.1375 102.679 15.2878 102.539 15.408C102.419 15.5283 102.268 15.5884 102.088 15.5884H100.825C100.585 15.5884 100.385 15.4882 100.224 15.2878C99.9037 14.9071 99.6231 14.6165 99.3827 14.4161C99.1623 14.1957 98.8316 14.0053 98.3908 13.845C97.97 13.6847 97.4289 13.6046 96.7677 13.6046C95.8058 13.6046 95.0644 13.815 94.5434 14.2358C94.0224 14.6366 93.7619 15.1676 93.7619 15.8288C93.7619 16.2496 93.8721 16.6103 94.0925 16.9109C94.313 17.1915 94.7338 17.452 95.355 17.6924C95.9962 17.9329 96.918 18.1834 98.1203 18.4439C100.024 18.8446 101.366 19.4257 102.148 20.1872C102.95 20.9286 103.35 21.8804 103.35 23.0427C103.35 23.9043 103.1 24.6858 102.599 25.3872C102.098 26.0885 101.356 26.6396 100.375 27.0403C99.4127 27.4411 98.2605 27.6415 96.918 27.6415Z" fill="#2684FC"/>
<path d="M110.567 27.3409C110.306 27.3409 110.106 27.2808 109.966 27.1606C109.826 27.0403 109.705 26.85 109.605 26.5895L105.337 12.6427L105.277 12.3422C105.277 12.1618 105.337 12.0115 105.457 11.8913C105.597 11.7711 105.748 11.7109 105.908 11.7109H107.231C107.431 11.7109 107.591 11.7711 107.711 11.8913C107.852 11.9915 107.942 12.1017 107.982 12.2219L111.318 23.5536L114.895 12.3422C114.935 12.1818 115.025 12.0416 115.166 11.9213C115.306 11.7811 115.496 11.7109 115.737 11.7109H116.759C116.999 11.7109 117.19 11.7811 117.33 11.9213C117.47 12.0416 117.56 12.1818 117.6 12.3422L121.177 23.5536L124.514 12.2219C124.534 12.1217 124.604 12.0115 124.724 11.8913C124.864 11.7711 125.035 11.7109 125.235 11.7109H126.588C126.748 11.7109 126.888 11.7711 127.008 11.8913C127.129 12.0115 127.189 12.1618 127.189 12.3422L127.129 12.6427L122.891 26.5895C122.79 26.85 122.67 27.0403 122.53 27.1606C122.39 27.2808 122.179 27.3409 121.899 27.3409H120.726C120.185 27.3409 119.855 27.0904 119.735 26.5895L116.248 15.8288L112.761 26.5895C112.601 27.0904 112.26 27.3409 111.739 27.3409H110.567Z" fill="#2684FC"/>
<path d="M136.509 27.6415C134.305 27.6415 132.592 27.0203 131.369 25.7779C130.167 24.5355 129.526 22.8824 129.446 20.8184L129.416 19.5259L129.446 18.2334C129.526 16.1895 130.177 14.5464 131.399 13.304C132.622 12.0416 134.325 11.4104 136.509 11.4104C138.693 11.4104 140.397 12.0416 141.619 13.304C142.841 14.5464 143.493 16.1895 143.573 18.2334C143.593 18.4539 143.603 18.8847 143.603 19.5259C143.603 20.1672 143.593 20.598 143.573 20.8184C143.493 22.8824 142.841 24.5355 141.619 25.7779C140.417 27.0203 138.713 27.6415 136.509 27.6415ZM136.509 25.327C137.772 25.327 138.764 24.9263 139.485 24.1247C140.226 23.3232 140.627 22.171 140.687 20.6681C140.707 20.4677 140.717 20.087 140.717 19.5259C140.717 18.9648 140.707 18.5841 140.687 18.3837C140.627 16.8809 140.226 15.7286 139.485 14.9271C138.764 14.1256 137.772 13.7248 136.509 13.7248C135.247 13.7248 134.245 14.1256 133.503 14.9271C132.762 15.7286 132.371 16.8809 132.331 18.3837L132.301 19.5259L132.331 20.6681C132.371 22.171 132.762 23.3232 133.503 24.1247C134.245 24.9263 135.247 25.327 136.509 25.327Z" fill="#2684FC"/>
<path d="M148.058 27.3409C147.858 27.3409 147.687 27.2808 147.547 27.1606C147.427 27.0203 147.367 26.85 147.367 26.6496V12.4323C147.367 12.2319 147.427 12.0616 147.547 11.9213C147.687 11.7811 147.858 11.7109 148.058 11.7109H149.441C149.641 11.7109 149.811 11.7811 149.952 11.9213C150.092 12.0616 150.162 12.2319 150.162 12.4323V13.7549C150.984 12.3923 152.386 11.7109 154.37 11.7109H155.542C155.743 11.7109 155.903 11.7811 156.023 11.9213C156.163 12.0416 156.234 12.2019 156.234 12.4023V13.6346C156.234 13.835 156.163 13.9953 156.023 14.1156C155.903 14.2358 155.743 14.2959 155.542 14.2959H153.739C152.657 14.2959 151.805 14.6165 151.184 15.2577C150.563 15.8789 150.252 16.7306 150.252 17.8126V26.6496C150.252 26.85 150.182 27.0203 150.042 27.1606C149.901 27.2808 149.731 27.3409 149.531 27.3409H148.058Z" fill="#2684FC"/>
<path d="M164.173 27.6415C162.089 27.6415 160.516 26.9602 159.454 25.5976C158.392 24.235 157.831 22.5116 157.771 20.4277L157.741 19.5259L157.771 18.6242C157.831 16.5602 158.392 14.847 159.454 13.4843C160.516 12.1017 162.089 11.4104 164.173 11.4104C166.237 11.4104 167.86 12.1418 169.042 13.6046V6.69133C169.042 6.49094 169.102 6.33063 169.223 6.2104C169.363 6.07013 169.533 6 169.734 6H171.176C171.377 6 171.537 6.07013 171.657 6.2104C171.798 6.33063 171.868 6.49094 171.868 6.69133V26.6496C171.868 26.85 171.798 27.0203 171.657 27.1606C171.537 27.2808 171.377 27.3409 171.176 27.3409H169.824C169.623 27.3409 169.453 27.2808 169.313 27.1606C169.193 27.0203 169.133 26.85 169.133 26.6496V25.3872C167.97 26.89 166.317 27.6415 164.173 27.6415ZM164.804 25.2068C166.187 25.2068 167.219 24.7559 167.9 23.8542C168.602 22.9325 168.982 21.8404 169.042 20.5779C169.062 20.3575 169.072 19.9768 169.072 19.4358C169.072 18.8747 169.062 18.4839 169.042 18.2635C169.002 17.0812 168.622 16.0493 167.9 15.1676C167.179 14.2859 166.147 13.845 164.804 13.845C163.382 13.845 162.34 14.2859 161.678 15.1676C161.037 16.0493 160.686 17.2115 160.626 18.6543L160.596 19.5259C160.596 23.3132 161.999 25.2068 164.804 25.2068Z" fill="#2684FC"/>
<path d="M186.099 27.3411C185.898 27.3411 185.728 27.281 185.588 27.1608C185.467 27.0205 185.407 26.8502 185.407 26.6498V7.02216C185.407 6.80174 185.467 6.63142 185.588 6.51119C185.728 6.37092 185.898 6.30078 186.099 6.30078H187.601C187.822 6.30078 187.992 6.37092 188.112 6.51119C188.253 6.63142 188.323 6.80174 188.323 7.02216V14.4765L196.348 6.7817C196.669 6.46109 197.06 6.30078 197.52 6.30078H199.144C199.304 6.30078 199.444 6.3609 199.564 6.48113C199.685 6.60136 199.745 6.74163 199.745 6.90193C199.745 7.06224 199.705 7.19249 199.624 7.29268L190.337 16.3701L200.226 26.3192C200.326 26.4394 200.376 26.5797 200.376 26.74C200.376 26.9003 200.316 27.0405 200.196 27.1608C200.075 27.281 199.935 27.3411 199.775 27.3411H198.092C197.651 27.3411 197.26 27.1708 196.919 26.8301L188.323 18.3839V26.6498C188.323 26.8502 188.253 27.0205 188.112 27.1608C187.972 27.281 187.802 27.3411 187.601 27.3411H186.099Z" fill="#0066DA"/>
<path d="M208.411 27.6417C206.347 27.6417 204.694 27.0105 203.451 25.7481C202.229 24.4656 201.558 22.7223 201.437 20.518L201.407 19.4961L201.437 18.5042C201.578 16.34 202.259 14.6167 203.481 13.3343C204.724 12.0518 206.357 11.4106 208.381 11.4106C210.605 11.4106 212.328 12.1219 213.551 13.5447C214.773 14.9474 215.384 16.851 215.384 19.2556V19.7666C215.384 19.967 215.314 20.1373 215.174 20.2776C215.053 20.3978 214.893 20.4579 214.693 20.4579H204.293V20.7284C204.353 22.0309 204.744 23.1431 205.465 24.0648C206.206 24.9666 207.178 25.4174 208.381 25.4174C209.302 25.4174 210.054 25.2371 210.635 24.8764C211.236 24.4957 211.677 24.1049 211.957 23.7041C212.138 23.4637 212.268 23.3234 212.348 23.2833C212.448 23.2232 212.619 23.1932 212.859 23.1932H214.332C214.512 23.1932 214.663 23.2433 214.783 23.3435C214.903 23.4436 214.963 23.5839 214.963 23.7643C214.963 24.2051 214.683 24.7361 214.122 25.3573C213.581 25.9785 212.809 26.5195 211.807 26.9804C210.825 27.4213 209.693 27.6417 208.411 27.6417ZM212.529 18.3839V18.2938C212.529 16.9111 212.148 15.789 211.386 14.9273C210.645 14.0456 209.643 13.6048 208.381 13.6048C207.118 13.6048 206.116 14.0456 205.375 14.9273C204.653 15.789 204.293 16.9111 204.293 18.2938V18.3839H212.529Z" fill="#0066DA"/>
<path d="M225.23 27.6417C223.166 27.6417 221.513 27.0105 220.271 25.7481C219.048 24.4656 218.377 22.7223 218.257 20.518L218.227 19.4961L218.257 18.5042C218.397 16.34 219.078 14.6167 220.301 13.3343C221.543 12.0518 223.176 11.4106 225.2 11.4106C227.424 11.4106 229.148 12.1219 230.37 13.5447C231.592 14.9474 232.203 16.851 232.203 19.2556V19.7666C232.203 19.967 232.133 20.1373 231.993 20.2776C231.873 20.3978 231.712 20.4579 231.512 20.4579H221.112V20.7284C221.172 22.0309 221.563 23.1431 222.284 24.0648C223.026 24.9666 223.998 25.4174 225.2 25.4174C226.122 25.4174 226.873 25.2371 227.454 24.8764C228.055 24.4957 228.496 24.1049 228.777 23.7041C228.957 23.4637 229.087 23.3234 229.168 23.2833C229.268 23.2232 229.438 23.1932 229.679 23.1932H231.151C231.332 23.1932 231.482 23.2433 231.602 23.3435C231.722 23.4436 231.783 23.5839 231.783 23.7643C231.783 24.2051 231.502 24.7361 230.941 25.3573C230.4 25.9785 229.628 26.5195 228.627 26.9804C227.645 27.4213 226.513 27.6417 225.23 27.6417ZM229.348 18.3839V18.2938C229.348 16.9111 228.967 15.789 228.206 14.9273C227.464 14.0456 226.462 13.6048 225.2 13.6048C223.938 13.6048 222.936 14.0456 222.194 14.9273C221.473 15.789 221.112 16.9111 221.112 18.2938V18.3839H229.348Z" fill="#0066DA"/>
<path d="M236.519 33.0521C236.318 33.0521 236.148 32.9819 236.008 32.8417C235.888 32.7214 235.827 32.5611 235.827 32.3607V12.4025C235.827 12.2021 235.888 12.0418 236.008 11.9216C236.148 11.7813 236.318 11.7112 236.519 11.7112H237.901C238.102 11.7112 238.262 11.7813 238.382 11.9216C238.523 12.0418 238.593 12.2021 238.593 12.4025V13.725C239.715 12.1821 241.358 11.4106 243.522 11.4106C245.626 11.4106 247.199 12.0718 248.241 13.3944C249.303 14.7169 249.874 16.4202 249.955 18.5042C249.975 18.7246 249.985 19.0652 249.985 19.5261C249.985 19.987 249.975 20.3277 249.955 20.5481C249.874 22.612 249.303 24.3153 248.241 25.6579C247.179 26.9804 245.606 27.6417 243.522 27.6417C241.438 27.6417 239.815 26.8902 238.653 25.3874V32.3607C238.653 32.5611 238.593 32.7214 238.473 32.8417C238.352 32.9819 238.192 33.0521 237.992 33.0521H236.519ZM242.891 25.207C244.314 25.207 245.346 24.7662 245.987 23.8845C246.648 23.0028 247.009 21.8406 247.069 20.3978C247.089 20.1974 247.099 19.9069 247.099 19.5261C247.099 15.7389 245.696 13.8452 242.891 13.8452C241.508 13.8452 240.466 14.3061 239.765 15.2279C239.084 16.1296 238.713 17.2117 238.653 18.4741L238.623 19.6163L238.653 20.7886C238.693 21.9708 239.074 23.0028 239.795 23.8845C240.516 24.7662 241.548 25.207 242.891 25.207Z" fill="#0066DA"/>
<path d="M259.955 27.6417C257.891 27.6417 256.238 27.0105 254.995 25.7481C253.773 24.4656 253.102 22.7223 252.981 20.518L252.951 19.4961L252.981 18.5042C253.122 16.34 253.803 14.6167 255.025 13.3343C256.268 12.0518 257.901 11.4106 259.925 11.4106C262.149 11.4106 263.872 12.1219 265.095 13.5447C266.317 14.9474 266.928 16.851 266.928 19.2556V19.7666C266.928 19.967 266.858 20.1373 266.718 20.2776C266.598 20.3978 266.437 20.4579 266.237 20.4579H255.837V20.7284C255.897 22.0309 256.288 23.1431 257.009 24.0648C257.751 24.9666 258.722 25.4174 259.925 25.4174C260.847 25.4174 261.598 25.2371 262.179 24.8764C262.78 24.4957 263.221 24.1049 263.502 23.7041C263.682 23.4637 263.812 23.3234 263.892 23.2833C263.993 23.2232 264.163 23.1932 264.403 23.1932H265.876C266.057 23.1932 266.207 23.2433 266.327 23.3435C266.447 23.4436 266.507 23.5839 266.507 23.7643C266.507 24.2051 266.227 24.7361 265.666 25.3573C265.125 25.9785 264.353 26.5195 263.351 26.9804C262.369 27.4213 261.237 27.6417 259.955 27.6417ZM264.073 18.3839V18.2938C264.073 16.9111 263.692 15.789 262.931 14.9273C262.189 14.0456 261.187 13.6048 259.925 13.6048C258.662 13.6048 257.66 14.0456 256.919 14.9273C256.198 15.789 255.837 16.9111 255.837 18.2938V18.3839H264.073Z" fill="#0066DA"/>
<path d="M271.214 27.3411C271.013 27.3411 270.843 27.281 270.703 27.1608C270.582 27.0205 270.522 26.8502 270.522 26.6498V12.4325C270.522 12.2322 270.582 12.0618 270.703 11.9216C270.843 11.7813 271.013 11.7112 271.214 11.7112H272.596C272.797 11.7112 272.967 11.7813 273.107 11.9216C273.247 12.0618 273.318 12.2322 273.318 12.4325V13.7551C274.139 12.3925 275.542 11.7112 277.526 11.7112H278.698C278.898 11.7112 279.059 11.7813 279.179 11.9216C279.319 12.0418 279.389 12.2021 279.389 12.4025V13.6348C279.389 13.8352 279.319 13.9955 279.179 14.1158C279.059 14.236 278.898 14.2961 278.698 14.2961H276.894C275.812 14.2961 274.961 14.6167 274.339 15.258C273.718 15.8791 273.408 16.7308 273.408 17.8128V26.6498C273.408 26.8502 273.338 27.0205 273.197 27.1608C273.057 27.281 272.887 27.3411 272.686 27.3411H271.214Z" fill="#0066DA"/>
</svg>
