<svg width="237" height="28" fill="none" xmlns="http://www.w3.org/2000/svg">
  <path d="M26.163 12.089a.552.552 0 01-.354.707l-8.208 2.62a4.535 4.535 0 00-.166-2.373 4.535 4.535 0 00-1.454-2.063l8.142-3.05a.552.552 0 01.715.337l1.325 3.822zM19.39 26.282a.552.552 0 01-.779-.13l-4.918-7.076a4.534 4.534 0 002.22-.856 4.534 4.534 0 001.544-1.996l5.308 6.886c.19.245.14.599-.11.782l-3.264 2.39zM1.298 8.408a.552.552 0 01.71-.347l8.113 2.907a4.534 4.534 0 00-1.311 1.986 4.534 4.534 0 00-.099 2.521L.392 12.95a.552.552 0 01-.364-.702l1.27-3.84zM6.877 26.21c.25.183.602.124.78-.131l4.918-7.076a4.535 4.535 0 01-2.22-.856A4.535 4.535 0 018.81 16.15l-5.309 6.886a.552.552 0 00.111.782l3.264 2.39z" fill="#2684FC"/>
  <path fill-rule="evenodd" clip-rule="evenodd" d="M13 18.382a3.866 3.866 0 10.248-7.727A3.866 3.866 0 0013 18.382zm.094-2.898a.966.966 0 10.061-1.931.966.966 0 00-.061 1.931z" fill="#0066DA"/>
  <path d="M13.185.588l-2.15 2.085a.248.248 0 00-.075.175l-.136 9.071c-.003.222.295.488.517.488 1.107.003 3.569.259 4.12.232.092-.005.088-.106.09-.198l.036-2.415a.248.248 0 00-.077-.184l-1.347-1.281a.249.249 0 01.005-.365l1.264-1.133a.249.249 0 00.005-.366l-1.24-1.17a.249.249 0 01.006-.367l1.395-1.239a.248.248 0 00.083-.182l.013-.803a.248.248 0 00-.07-.176L13.538.594a.249.249 0 00-.352-.006z" fill="#0066DA"/>
  <path d="M35.319 23.16a.643.643 0 01-.433-.152.643.643 0 01-.153-.433V5.948c0-.187.051-.331.153-.433a.59.59 0 01.433-.178h6.467c1.919 0 3.43.466 4.533 1.4 1.103.934 1.655 2.283 1.655 4.049 0 1.765-.552 3.115-1.655 4.049-1.087.916-2.597 1.374-4.533 1.374H37.28v6.366a.59.59 0 01-.178.433.643.643 0 01-.433.153h-1.35zm6.34-9.09c1.24 0 2.173-.28 2.801-.84.645-.56.968-1.375.968-2.444 0-1.07-.314-1.884-.942-2.445-.629-.577-1.57-.865-2.827-.865h-4.405v6.595h4.405zm12.524 9.346a5.32 5.32 0 01-2.317-.51c-.713-.34-1.282-.797-1.706-1.375a3.392 3.392 0 01-.611-1.96c0-1.12.458-2.037 1.374-2.75.934-.73 2.19-1.206 3.77-1.426l3.793-.535v-.739c0-1.731-.993-2.597-2.98-2.597-.746 0-1.357.162-1.832.484-.476.306-.832.67-1.07 1.095a.692.692 0 01-.204.331c-.067.068-.17.102-.305.102H51a.609.609 0 01-.407-.153.609.609 0 01-.153-.407c.017-.408.204-.866.56-1.375.373-.527.942-.977 1.706-1.35.764-.39 1.706-.586 2.826-.586 1.902 0 3.268.45 4.1 1.35.832.883 1.248 1.986 1.248 3.31v8.25a.59.59 0 01-.179.433.55.55 0 01-.407.153h-1.171a.643.643 0 01-.433-.153.643.643 0 01-.153-.433V21.48c-.373.544-.917 1.002-1.63 1.375-.713.374-1.62.56-2.724.56zm.535-1.91c1.103 0 2.003-.357 2.699-1.07.713-.73 1.07-1.774 1.07-3.132v-.713l-2.955.433c-1.205.17-2.113.459-2.724.866-.611.39-.917.891-.917 1.502 0 .68.28 1.206.84 1.58.56.356 1.223.534 1.987.534zm14.406 1.91c-1.189 0-2.19-.187-3.005-.56-.798-.391-1.4-.832-1.808-1.325-.39-.492-.586-.9-.586-1.222 0-.17.06-.297.179-.382a.678.678 0 01.407-.153h1.146c.17 0 .322.085.458.255.408.475.849.849 1.324 1.12.476.272 1.112.408 1.91.408.883 0 1.596-.17 2.139-.51.56-.356.84-.84.84-1.45 0-.408-.119-.74-.356-.994-.22-.272-.611-.5-1.172-.688-.543-.203-1.358-.424-2.444-.662-1.477-.322-2.53-.789-3.157-1.4-.612-.611-.917-1.4-.917-2.368 0-.645.187-1.256.56-1.833.39-.595.95-1.07 1.68-1.426.748-.374 1.639-.56 2.674-.56 1.087 0 2.012.178 2.776.534.764.357 1.332.781 1.706 1.273.39.476.586.874.586 1.197 0 .153-.06.28-.179.382a.518.518 0 01-.382.153h-1.07a.627.627 0 01-.508-.255 6.062 6.062 0 00-.713-.738c-.187-.187-.467-.348-.84-.484-.357-.136-.816-.204-1.376-.204-.814 0-1.443.179-1.884.535-.441.34-.662.79-.662 1.35 0 .356.093.662.28.916.187.238.543.459 1.07.662.543.204 1.324.416 2.342.637 1.613.34 2.75.832 3.412 1.477.68.628 1.019 1.434 1.019 2.419 0 .73-.212 1.392-.637 1.986-.424.594-1.052 1.06-1.884 1.4-.815.34-1.791.51-2.928.51zm12.98 0c-1.188 0-2.19-.187-3.005-.56-.798-.391-1.4-.832-1.808-1.325-.39-.492-.585-.9-.585-1.222 0-.17.06-.297.178-.382a.678.678 0 01.407-.153h1.146c.17 0 .323.085.459.255.407.475.848.849 1.324 1.12.475.272 1.112.408 1.91.408.882 0 1.595-.17 2.138-.51.56-.356.84-.84.84-1.45 0-.408-.118-.74-.356-.994-.22-.272-.611-.5-1.171-.688-.543-.203-1.358-.424-2.445-.662-1.477-.322-2.529-.789-3.157-1.4-.611-.611-.917-1.4-.917-2.368 0-.645.187-1.256.56-1.833.39-.595.951-1.07 1.68-1.426.748-.374 1.64-.56 2.675-.56 1.086 0 2.011.178 2.775.534.764.357 1.333.781 1.706 1.273.39.476.586.874.586 1.197 0 .153-.06.28-.178.382a.518.518 0 01-.382.153h-1.07a.627.627 0 01-.51-.255 6.062 6.062 0 00-.712-.738c-.187-.187-.467-.348-.84-.484-.357-.136-.815-.204-1.375-.204-.815 0-1.443.179-1.885.535-.441.34-.662.79-.662 1.35 0 .356.094.662.28.916.187.238.544.459 1.07.662.543.204 1.324.416 2.342.637 1.613.34 2.75.832 3.412 1.477.68.628 1.019 1.434 1.019 2.419 0 .73-.212 1.392-.636 1.986-.425.594-1.053 1.06-1.885 1.4-.815.34-1.79.51-2.928.51zm11.563-.256c-.221 0-.39-.05-.51-.152-.118-.102-.22-.263-.305-.484L89.236 10.71l-.05-.254c0-.153.05-.28.152-.382a.577.577 0 01.382-.153h1.12c.17 0 .306.051.408.153a.582.582 0 01.229.28l2.826 9.6 3.03-9.498a.684.684 0 01.23-.357c.118-.119.28-.178.483-.178h.866c.204 0 .365.06.484.178a.683.683 0 01.229.357l3.03 9.498 2.827-9.6c.017-.085.076-.178.178-.28a.643.643 0 01.433-.153h1.146a.49.49 0 01.356.153.518.518 0 01.153.382l-.051.254-3.59 11.815c-.085.221-.187.382-.306.484-.119.102-.297.153-.535.153h-.993c-.458 0-.738-.212-.84-.637l-2.954-9.116-2.954 9.116c-.135.425-.424.637-.865.637h-.993zm21.977.256c-1.868 0-3.319-.527-4.355-1.58-1.018-1.052-1.561-2.452-1.629-4.2l-.026-1.095.026-1.095c.068-1.732.619-3.124 1.655-4.176 1.035-1.07 2.478-1.605 4.329-1.605 1.85 0 3.293.535 4.328 1.605 1.036 1.052 1.588 2.444 1.655 4.176.017.186.026.551.026 1.095 0 .543-.009.908-.026 1.094-.067 1.749-.619 3.15-1.655 4.202-1.018 1.052-2.461 1.579-4.328 1.579zm0-1.961c1.069 0 1.909-.34 2.52-1.019.629-.679.968-1.655 1.019-2.928.017-.17.025-.492.025-.967 0-.476-.008-.798-.025-.968-.051-1.273-.39-2.25-1.019-2.928-.611-.68-1.451-1.019-2.52-1.019-1.07 0-1.919.34-2.547 1.019-.628.679-.959 1.655-.993 2.928l-.025.968.025.967c.034 1.273.365 2.25.993 2.928.628.68 1.477 1.019 2.547 1.019zm9.783 1.705a.643.643 0 01-.433-.152.642.642 0 01-.153-.433V10.531c0-.17.051-.314.153-.433a.59.59 0 01.433-.178h1.171c.17 0 .314.06.433.178a.588.588 0 01.178.433v1.12c.696-1.154 1.885-1.731 3.565-1.731h.993c.17 0 .306.06.408.178a.509.509 0 01.178.408v1.044c0 .17-.059.305-.178.407a.552.552 0 01-.408.153h-1.527c-.917 0-1.639.272-2.165.815-.526.526-.789 1.247-.789 2.164v7.486c0 .17-.06.314-.178.433a.643.643 0 01-.433.153h-1.248zm13.652.256c-1.766 0-3.098-.578-3.998-1.732-.899-1.154-1.375-2.614-1.426-4.38l-.025-.763.025-.764c.051-1.749.527-3.2 1.426-4.355.9-1.17 2.232-1.757 3.998-1.757 1.748 0 3.123.62 4.125 1.86V5.667a.55.55 0 01.153-.408.59.59 0 01.433-.178h1.222c.17 0 .305.06.407.178a.51.51 0 01.179.408v16.907a.59.59 0 01-.179.433.55.55 0 01-.407.153h-1.146a.643.643 0 01-.433-.153.642.642 0 01-.153-.433v-1.07c-.984 1.274-2.385 1.91-4.201 1.91zm.535-2.063c1.171 0 2.045-.382 2.622-1.146.595-.78.917-1.706.968-2.775.017-.187.025-.51.025-.968 0-.475-.008-.806-.025-.993-.034-1.002-.356-1.876-.968-2.623-.611-.747-1.485-1.12-2.622-1.12-1.206 0-2.088.373-2.649 1.12-.543.747-.84 1.732-.891 2.954l-.025.739c0 3.208 1.188 4.812 3.565 4.812z" fill="#2684FC"/>
  <path d="M157.653 23.161a.642.642 0 01-.433-.153.642.642 0 01-.153-.432V5.948c0-.187.051-.331.153-.433a.59.59 0 01.433-.178h1.273c.187 0 .331.06.433.178.119.102.178.246.178.433v6.315l6.799-6.519c.272-.271.603-.407.993-.407h1.375a.49.49 0 01.357.153.49.49 0 01.152.356.519.519 0 01-.101.331l-7.869 7.69 8.378 8.428a.54.54 0 01.127.357.488.488 0 01-.153.356.487.487 0 01-.356.153h-1.426c-.374 0-.705-.144-.993-.433l-7.283-7.155v7.003c0 .17-.059.314-.178.432a.642.642 0 01-.433.153h-1.273zm18.902.255c-1.749 0-3.149-.535-4.202-1.604-1.035-1.087-1.604-2.564-1.706-4.431l-.025-.866.025-.84c.119-1.833.696-3.293 1.732-4.38 1.052-1.086 2.436-1.63 4.15-1.63 1.885 0 3.344.603 4.38 1.809 1.035 1.188 1.553 2.8 1.553 4.838v.432c0 .17-.059.314-.178.433a.55.55 0 01-.407.153h-8.811v.23c.051 1.103.382 2.045.993 2.826.628.764 1.452 1.146 2.47 1.146.781 0 1.418-.153 1.91-.459.509-.322.883-.653 1.12-.993.153-.204.264-.322.331-.356.085-.051.23-.077.433-.077h1.248c.153 0 .28.043.382.128a.438.438 0 01.153.356c0 .373-.238.823-.713 1.35-.459.526-1.112.984-1.961 1.375-.832.373-1.791.56-2.877.56zm3.488-7.843v-.076c0-1.172-.322-2.122-.967-2.852-.628-.747-1.477-1.12-2.547-1.12-1.069 0-1.918.373-2.546 1.12-.611.73-.917 1.68-.917 2.852v.076h6.977zm10.76 7.843c-1.748 0-3.149-.535-4.201-1.604-1.036-1.087-1.604-2.564-1.706-4.431l-.026-.866.026-.84c.119-1.833.696-3.293 1.731-4.38 1.053-1.086 2.436-1.63 4.151-1.63 1.884 0 3.344.603 4.379 1.809 1.036 1.188 1.554 2.8 1.554 4.838v.432a.59.59 0 01-.179.433.548.548 0 01-.407.153h-8.81v.23c.051 1.103.382 2.045.993 2.826.628.764 1.451 1.146 2.47 1.146.781 0 1.417-.153 1.91-.459.509-.322.882-.653 1.12-.993.153-.204.263-.322.331-.356.085-.051.229-.077.433-.077h1.247c.153 0 .281.043.382.128a.438.438 0 01.153.356c0 .373-.237.823-.713 1.35-.458.526-1.112.984-1.96 1.375-.832.373-1.791.56-2.878.56zm3.489-7.843v-.076c0-1.172-.323-2.122-.968-2.852-.628-.747-1.477-1.12-2.546-1.12-1.07 0-1.918.373-2.547 1.12-.611.73-.916 1.68-.916 2.852v.076h6.977zM200.366 28a.587.587 0 01-.432-.179.55.55 0 01-.153-.407V10.506a.55.55 0 01.153-.408.587.587 0 01.432-.178h1.172c.17 0 .305.06.407.178a.51.51 0 01.178.408v1.12c.951-1.307 2.343-1.96 4.176-1.96 1.783 0 3.115.56 3.998 1.68.9 1.12 1.384 2.563 1.452 4.329.017.187.025.475.025.866 0 .39-.008.679-.025.866-.068 1.748-.552 3.19-1.452 4.328-.9 1.12-2.232 1.68-3.998 1.68-1.765 0-3.14-.636-4.125-1.909v5.908c0 .17-.051.305-.152.407a.51.51 0 01-.408.178h-1.248zm5.399-6.647c1.205 0 2.079-.373 2.622-1.12.561-.747.866-1.732.917-2.954.017-.17.026-.416.026-.738 0-3.209-1.189-4.813-3.565-4.813-1.172 0-2.054.39-2.649 1.171-.577.764-.891 1.681-.942 2.75l-.025.968.025.993c.034 1.002.357 1.876.968 2.623.611.747 1.485 1.12 2.623 1.12zm14.455 2.063c-1.748 0-3.149-.535-4.201-1.604-1.036-1.087-1.604-2.564-1.706-4.431l-.026-.866.026-.84c.119-1.833.696-3.293 1.731-4.38 1.053-1.086 2.436-1.63 4.151-1.63 1.884 0 3.344.603 4.379 1.809 1.036 1.188 1.554 2.8 1.554 4.838v.432a.59.59 0 01-.179.433.548.548 0 01-.407.153h-8.81v.23c.051 1.103.382 2.045.993 2.826.628.764 1.451 1.146 2.47 1.146.781 0 1.417-.153 1.91-.459.509-.322.882-.653 1.12-.993.153-.204.263-.322.331-.356.085-.051.229-.077.433-.077h1.248c.152 0 .28.043.381.128a.438.438 0 01.153.356c0 .373-.237.823-.713 1.35-.458.526-1.112.984-1.96 1.375-.832.373-1.791.56-2.878.56zm3.489-7.843v-.076c0-1.172-.323-2.122-.968-2.852-.628-.747-1.477-1.12-2.546-1.12-1.07 0-1.918.373-2.547 1.12-.611.73-.916 1.68-.916 2.852v.076h6.977zm6.049 7.588a.642.642 0 01-.433-.153.642.642 0 01-.153-.432V10.53c0-.17.051-.314.153-.433a.59.59 0 01.433-.178h1.171c.17 0 .314.06.433.178a.589.589 0 01.178.433v1.12c.696-1.153 1.885-1.73 3.565-1.73h.993a.51.51 0 01.408.178.51.51 0 01.178.407v1.044a.51.51 0 01-.178.407.552.552 0 01-.408.153h-1.527c-.917 0-1.639.272-2.165.815-.526.526-.789 1.248-.789 2.164v7.487c0 .17-.06.314-.178.432a.644.644 0 01-.433.153h-1.248z" fill="#0066DA"/>
</svg>
