<svg width="400" height="100" fill="none" xmlns="http://www.w3.org/2000/svg">
  <path d="M230.453 47.317a1.34 1.34 0 01-.858 1.715l-19.909 6.356a11 11 0 00-.402-5.758 11 11 0 00-3.526-5l19.746-7.397a1.339 1.339 0 011.735.815l3.214 9.27zM214.028 81.74a1.34 1.34 0 01-1.891-.316l-11.928-17.16a11.001 11.001 0 005.385-2.077 10.998 10.998 0 003.743-4.84l12.875 16.699c.46.596.338 1.454-.269 1.898l-7.915 5.797zm-43.879-43.35a1.339 1.339 0 011.723-.84l19.673 7.05a11 11 0 00-3.179 4.817 11.006 11.006 0 00-.239 6.114l-20.176-6.126a1.34 1.34 0 01-.883-1.702l3.081-9.314zm13.529 43.173a1.339 1.339 0 001.891-.316l11.928-17.16a10.994 10.994 0 01-5.384-2.077 10.992 10.992 0 01-3.744-4.84l-12.875 16.7a1.34 1.34 0 00.27 1.898l7.914 5.796z" fill="#2684FC"/>
  <path fill-rule="evenodd" clip-rule="evenodd" d="M198.531 62.583a9.374 9.374 0 009.669-9.07 9.374 9.374 0 00-9.07-9.67 9.375 9.375 0 10-.599 18.74zm.224-7.028a2.344 2.344 0 10.15-4.686 2.344 2.344 0 00-.15 4.686z" fill="#0066DA"/>
  <path d="M198.977 19.428l-5.213 5.057a.609.609 0 00-.183.424l-.329 22c-.008.537.716 1.182 1.253 1.184 2.684.005 8.656.626 9.992.561.223-.01.215-.256.218-.48l.088-5.856a.605.605 0 00-.188-.446l-3.266-3.108a.603.603 0 01.013-.886l3.065-2.746a.603.603 0 00.012-.888l-3.007-2.838a.604.604 0 01.013-.89l3.384-3.005a.604.604 0 00.202-.44l.032-1.948a.6.6 0 00-.169-.429l-5.063-5.252a.603.603 0 00-.854-.014z" fill="#0066DA"/>
  <path d="M120.698 56.209l-18.897-5.36 3.551-10.897 18.717 7.526-1.204-21.013h11.795L133.457 47.9l18.235-7.406 3.55 11.018-19.258 5.359 12.639 16.016-9.569 6.803-10.953-17.58-10.833 16.978-9.569-6.502 12.999-16.377zm210.123.535L312 51.385l3.536-10.898 18.641 7.526L332.979 27h11.748l-1.199 21.435 18.161-7.406 3.537 11.018-19.181 5.359 12.587 16.016-9.53 6.804-10.909-17.582-10.789 16.98-9.53-6.503 12.947-16.377zm-67.469-.535l-18.897-5.36 3.55-10.897 18.717 7.526-1.204-21.013h11.796L276.11 47.9l18.235-7.406 3.551 11.018-19.258 5.359 12.638 16.016-9.569 6.803-10.953-17.58-10.833 16.978-9.569-6.502 13-16.377zm-209.455 0L35 50.849l3.55-10.897 18.717 7.526-1.204-21.013H67.86L66.655 47.9l18.235-7.406 3.551 11.018-19.258 5.359 12.638 16.016-9.569 6.803L61.3 62.11 50.467 79.087l-9.57-6.502 13-16.377z" fill="#CBCBCB"/>
</svg>
